<?xml version="1.0" encoding="UTF-8"?>
<!DOCTYPE svg PUBLIC "-//W3C//DTD SVG 1.1//EN" "http://www.w3.org/Graphics/SVG/1.1/DTD/svg11.dtd">
<!-- Creator: CorelDRAW -->
<svg xmlns="http://www.w3.org/2000/svg" xml:space="preserve" width="2048px" height="2048px" style="shape-rendering:geometricPrecision; text-rendering:geometricPrecision; image-rendering:optimizeQuality; fill-rule:evenodd; clip-rule:evenodd"
viewBox="0 0 2048 2048"
 xmlns:xlink="http://www.w3.org/1999/xlink">
 <defs>
  <style type="text/css">
   <![CDATA[
    .fil2 {fill:none}
    .fil3 {fill:#37474F}
    .fil6 {fill:#38261A}
    .fil12 {fill:#424242}
    .fil8 {fill:#546E7A}
    .fil4 {fill:#89A0A8}
    .fil10 {fill:#CCCC33}
    .fil1 {fill:#E6C047}
    .fil11 {fill:#EDB81A}
    .fil9 {fill:#FC0706}
    .fil0 {fill:#FFD54F}
    .fil5 {fill:#FFFFFE}
    .fil7 {fill:#CFD8DC;fill-rule:nonzero}
   ]]>
  </style>
   <clipPath id="id0">
    <path d="M1024 0c565.539,0 1024,458.461 1024,1024 0,565.539 -458.461,1024 -1024,1024 -565.539,0 -1024,-458.461 -1024,-1024 0,-565.539 458.461,-1024 1024,-1024z"/>
   </clipPath>
 </defs>
 <g id="Layer_x0020_1">
  <metadata id="CorelCorpID_0Corel-Layer"/>
  <path class="fil0" d="M1024 0c565.539,0 1024,458.461 1024,1024 0,565.539 -458.461,1024 -1024,1024 -565.539,0 -1024,-458.461 -1024,-1024 0,-565.539 458.461,-1024 1024,-1024z"/>
  <g style="clip-path:url(#id0)">
   <g id="_341215336">
    <g>
     <polygon id="_3384455521" class="fil1" points="1438.23,558.338 2574.11,1694.22 2575.71,1696.14 2577.21,1698.12 2578.61,1700.18 2579.91,1702.31 2581.09,1704.49 2582.17,1706.74 2583.12,1709.04 2583.96,1711.4 2584.67,1713.81 2585.26,1716.27 2585.71,1718.77 2586.04,1721.32 2586.22,1723.9 2599.8,2037.31 1463.92,901.423 1450.34,588.021 1450.16,585.437 1449.83,582.892 1449.38,580.389 1448.79,577.932 1448.08,575.521 1447.24,573.162 1446.29,570.858 1445.21,568.609 1444.03,566.423 1442.73,564.298 1441.33,562.241 1439.83,560.253 "/>
     <polygon id="_338445696" class="fil1" points="1571.25,920.351 2707.13,2056.23 2708.79,2058.19 2710.34,2060.23 2711.79,2062.33 2713.14,2064.5 2714.37,2066.74 2715.49,2069.04 2716.49,2071.39 2717.37,2073.79 2718.12,2076.25 2718.75,2078.75 2719.24,2081.3 2719.59,2083.88 2719.81,2086.51 2719.88,2089.16 2719.88,2129.62 1584,993.735 1584,953.281 1583.93,950.625 1583.71,948.002 1583.36,945.415 1582.86,942.869 1582.24,940.366 1581.49,937.911 1580.61,935.505 1579.61,933.153 1578.49,930.858 1577.26,928.622 1575.91,926.451 1574.46,924.347 1572.9,922.312 "/>
     <polygon id="_338446728" class="fil1" points="1584,993.735 2719.88,2129.62 2719.88,2235.15 1584,1099.27 "/>
     <polygon id="_338446296" class="fil1" points="1584,1099.27 2719.88,2235.15 2719.88,2319.57 1584,1183.69 "/>
     <polygon id="_338446416" class="fil1" points="1584,1183.69 2719.88,2319.57 2719.88,2334.98 1584,1199.1 "/>
     <polygon id="_338446392" class="fil1" points="1584,1199.1 2719.88,2334.98 2719.88,2346.85 1584,1210.97 "/>
     <polygon id="_338446440" class="fil1" points="1584,1210.97 2719.88,2346.85 2719.88,2355.85 1584,1219.97 "/>
     <polygon id="_338446800" class="fil1" points="1584,1219.97 2719.88,2355.85 2719.88,2367.72 1584,1231.84 "/>
     <polygon id="_338446608" class="fil1" points="1584,1231.84 2719.88,2367.72 2719.88,2376.72 1584,1240.84 "/>
     <polygon id="_338447688" class="fil1" points="1584,1240.84 2719.88,2376.72 2719.88,2388.59 1584,1252.71 "/>
     <polygon id="_338447736" class="fil1" points="1584,1252.71 2719.88,2388.59 2719.88,2404 1584,1268.12 "/>
     <polygon id="_338447280" class="fil1" points="570.899,1167.34 1706.78,2303.23 1677.52,2304.49 1674.74,2304.55 1671.99,2304.47 1669.28,2304.27 1666.6,2303.93 1663.96,2303.48 1661.36,2302.91 1658.81,2302.22 1656.32,2301.42 1653.87,2300.51 1651.49,2299.49 1649.17,2298.37 1646.91,2297.15 1644.72,2295.83 1642.61,2294.42 1640.57,2292.91 1638.61,2291.32 502.732,1155.44 504.689,1157.03 506.728,1158.54 508.842,1159.95 511.029,1161.27 513.285,1162.49 515.607,1163.61 517.992,1164.63 520.434,1165.54 522.931,1166.34 525.48,1167.03 528.075,1167.6 530.715,1168.05 533.396,1168.38 536.112,1168.59 538.862,1168.67 541.641,1168.61 "/>
     <polygon id="_338447256" class="fil1" points="1584,1268.12 2719.88,2404 2719.88,2592.2 2719.81,2594.85 2719.59,2597.48 2719.24,2600.06 2718.75,2602.61 2718.12,2605.11 2717.37,2607.57 2716.49,2609.97 2715.49,2612.33 2714.37,2614.62 2713.13,2616.86 2711.79,2619.03 2710.34,2621.13 2708.78,2623.17 2707.12,2625.13 2705.37,2627.01 2703.52,2628.82 2701.59,2630.54 2699.57,2632.17 2697.46,2633.71 2695.28,2635.16 2693.02,2636.52 2690.69,2637.77 2688.29,2638.92 2685.82,2639.96 2683.3,2640.89 2680.72,2641.71 2678.08,2642.42 2675.39,2643 2672.66,2643.45 2669.88,2643.79 2667.07,2643.99 2664.22,2644.06 1762.44,2644.06 1759.59,2643.99 1756.78,2643.79 1754,2643.46 1751.27,2643 1748.58,2642.42 1745.95,2641.71 1743.36,2640.9 1740.84,2639.96 1738.37,2638.92 1735.98,2637.77 1733.64,2636.52 1731.39,2635.17 1729.2,2633.72 1727.1,2632.18 1725.07,2630.54 589.193,1494.66 591.217,1496.29 593.321,1497.84 595.505,1499.29 597.763,1500.64 600.095,1501.89 602.494,1503.04 604.958,1504.08 607.483,1505.01 610.065,1505.83 612.701,1506.53 615.387,1507.11 618.12,1507.57 620.897,1507.9 623.712,1508.11 626.563,1508.17 1528.34,1508.17 1531.19,1508.11 1534,1507.9 1536.78,1507.57 1539.51,1507.11 1542.2,1506.53 1544.83,1505.83 1547.42,1505.01 1549.94,1504.08 1552.41,1503.04 1554.8,1501.89 1557.14,1500.63 1559.4,1499.28 1561.58,1497.83 1563.68,1496.29 1565.71,1494.65 1567.64,1492.93 1569.49,1491.13 1571.24,1489.25 1572.9,1487.28 1574.46,1485.25 1575.91,1483.15 1577.25,1480.97 1578.49,1478.74 1579.61,1476.44 1580.61,1474.09 1581.49,1471.69 1582.24,1469.23 1582.86,1466.73 1583.36,1464.18 1583.71,1461.59 1583.93,1458.97 1584,1456.31 "/>
    </g>
    <path id="_341215408" class="fil1" d="M516.049 577.915l877.909 -38.0339c29.8063,-1.29095 55.1776,20.3882 56.38,48.1394l13.578 313.402 64.4197 0c30.6166,0 55.6654,23.354 55.6654,51.8587l0 40.454 0 105.53 0 84.4264 0 15.4063 0 11.8713 0 8.99764 0 11.8725 0 8.99646 0 11.8725 0 15.4075 0 188.198c0,28.5059 -25.0677,51.8587 -55.6654,51.8587l-901.772 0c-30.5977,0 -55.6642,-23.3351 -55.6642,-51.8587l0 -188.198 0 -15.4075 0 -11.8725 0 -8.99646 0 -11.8725 0 -8.99764 0 -11.8713 0 -15.4063 0 -16.3488 -29.2583 1.26732c-29.7886,1.28976 -55.1764,-20.3705 -56.3788,-48.1382l-21.2173 -489.722c-1.20354,-27.7689 22.1988,-51.5433 52.004,-52.8355z"/>
   </g>
  </g>
  <path class="fil2" d="M1024 0c565.539,0 1024,458.461 1024,1024 0,565.539 -458.461,1024 -1024,1024 -565.539,0 -1024,-458.461 -1024,-1024 0,-565.539 458.461,-1024 1024,-1024z"/>
  <path class="fil3" d="M626.565 901.423l901.771 0c30.6166,0 55.6654,23.354 55.6654,51.8587l0 503.033c0,28.5059 -25.0677,51.8599 -55.6654,51.8599l-901.771 0c-30.5977,0 -55.6654,-23.3362 -55.6654,-51.8599l0 -503.033c0,-28.5225 25.0488,-51.8587 55.6654,-51.8587z"/>
  <polygon class="fil4" points="1584,1183.69 1584,1268.12 570.898,1268.12 570.898,1183.69 "/>
  <path class="fil5" d="M1584 1199.1l0 11.8725 -1013.1 0 0 -11.8725 1013.1 0zm0 20.8689l0 11.8725 -1013.1 0 0 -11.8725 1013.1 0zm0 20.8689l0 11.8725 -1013.1 0 0 -11.8725 1013.1 0z"/>
  <polygon class="fil6" points="1584,993.735 1584,1099.27 570.898,1099.27 570.898,993.735 "/>
  <path class="fil7" d="M1298.31 1468.82l-5.15315 0 0 -19.428c-1.88504,1.76575 -4.10079,3.06733 -6.65552,3.90591l0 -4.67599c1.34055,-0.438189 2.80512,-1.27087 4.38307,-2.49803 1.57795,-1.23425 2.66103,-2.66811 3.24331,-4.30866l4.18229 0 0 27.0047zm25.1138 -4.78937l0 4.78937 -18.0697 0c0.200788,-1.80945 0.783071,-3.52441 1.76575,-5.14607 0.976772,-1.62165 2.91142,-3.7689 5.79213,-6.44882 2.32914,-2.16024 3.75,-3.63189 4.27559,-4.40197 0.707481,-1.06536 1.06417,-2.11654 1.06417,-3.15591 0,-1.14567 -0.305906,-2.02795 -0.925985,-2.64803 -0.620079,-0.620079 -1.47165,-0.927166 -2.56063,-0.927166 -1.07717,0 -1.92874,0.324803 -2.56772,0.969686 -0.63189,0.651969 -1.00158,1.72914 -1.10079,3.2315l-5.13544 -0.51378c0.307087,-2.83583 1.26496,-4.87087 2.88071,-6.11103 1.61575,-1.23307 3.63189,-1.85315 6.05434,-1.85315 2.65512,0 4.73977,0.720473 6.25512,2.14843 1.51536,1.43268 2.27244,3.21142 2.27244,5.34095 0,1.20827 -0.218504,2.35984 -0.650788,3.45591 -0.432284,1.09606 -1.12087,2.24173 -2.05984,3.43701 -0.625985,0.794883 -1.75276,1.94055 -3.37441,3.43111 -1.62874,1.49055 -2.66103,2.48622 -3.09331,2.97402 -0.432284,0.488977 -0.788977,0.964961 -1.05827,1.42795l10.2366 0zm20.9516 -15.515l-4.99016 0.550394c-0.119291,-1.02638 -0.43937,-1.78465 -0.951969,-2.27835 -0.51378,-0.488977 -1.18347,-0.733465 -2.00433,-0.733465 -1.08307,0 -2.00315,0.488977 -2.76024,1.47165 -0.752363,0.976772 -1.22126,3.01181 -1.42205,6.10394 1.28976,-1.51536 2.88071,-2.27244 4.79055,-2.27244 2.15315,0 3.99449,0.820867 5.52874,2.46142 1.53307,1.63347 2.30433,3.75 2.30433,6.34252 0,2.75433 -0.807875,4.95827 -2.42362,6.62481 -1.60866,1.65827 -3.68859,2.49095 -6.21733,2.49095 -2.71181,0 -4.94646,-1.05236 -6.69331,-3.16181 -1.74685,-2.10945 -2.62323,-5.56536 -2.62323,-10.3748 0,-4.92756 0.907087,-8.47796 2.72953,-10.6571 1.82244,-2.17914 4.18819,-3.26811 7.09961,-3.26811 2.04095,0 3.73229,0.576378 5.07166,1.71614 1.34055,1.14567 2.19095,2.80512 2.56181,4.98426zm-11.6847 11.2453c0,1.67126 0.382677,2.96693 1.15276,3.8752 0.770079,0.914174 1.65354,1.37126 2.64213,1.37126 0.957875,0 1.74685,-0.375591 2.38583,-1.12087 0.638977,-0.745276 0.951969,-1.97244 0.951969,-3.66851 0,-1.74803 -0.338977,-3.03071 -1.02756,-3.84449 -0.682678,-0.814961 -1.54016,-1.22126 -2.56654,-1.22126 -0.989765,0 -1.82835,0.388583 -2.51103,1.16457 -0.688583,0.775985 -1.02756,1.92874 -1.02756,3.4441zm19.5366 -5.44843c-1.33465,-0.563386 -2.30433,-1.33937 -2.90551,-2.32205 -0.607087,-0.982678 -0.908268,-2.06693 -0.908268,-3.2374 0,-2.00433 0.694489,-3.6626 2.09764,-4.97126 1.40197,-1.30866 3.39331,-1.96654 5.97284,-1.96654 2.55473,0 4.53898,0.657875 5.94922,1.96654 1.41378,1.30866 2.12126,2.96693 2.12126,4.97126 0,1.24606 -0.324803,2.35394 -0.975591,3.33071 -0.644882,0.970867 -1.56024,1.71496 -2.73071,2.22874 1.49055,0.595276 2.62323,1.47165 3.4004,2.62441 0.775985,1.14567 1.16457,2.47323 1.16457,3.97559 0,2.48622 -0.788977,4.50237 -2.37402,6.05434 -1.58268,1.55315 -3.6874,2.32914 -6.31654,2.32914 -2.44843,0 -4.48347,-0.638977 -6.11103,-1.92284 -1.92284,-1.52126 -2.88071,-3.59882 -2.88071,-6.24213 0,-1.45276 0.36378,-2.78504 1.08425,-4.0063 0.719292,-1.21536 1.85906,-2.15433 3.41221,-2.81221zm1.06417 -5.18977c0,1.02638 0.288189,1.82717 0.869292,2.39764 0.583465,0.576378 1.35236,0.864568 2.32323,0.864568 0.976772,0 1.75984,-0.288189 2.34803,-0.870473 0.582284,-0.582284 0.876379,-1.38307 0.876379,-2.41063 0,-0.970867 -0.287008,-1.74095 -0.870473,-2.32323 -0.581103,-0.582284 -1.34528,-0.870473 -2.30315,-0.870473 -0.989765,0 -1.77874,0.294095 -2.36693,0.87756 -0.582284,0.588189 -0.876379,1.36417 -0.876379,2.33504zm-0.475985 11.5146c0,1.42087 0.36378,2.52874 1.08898,3.32481 0.726379,0.794883 1.63465,1.18937 2.72362,1.18937 1.06417,0 1.94764,-0.381496 2.64213,-1.14567 0.69567,-0.764174 1.04646,-1.86614 1.04646,-3.31181 0,-1.25906 -0.357874,-2.27362 -1.06417,-3.0378 -0.707481,-0.762993 -1.60984,-1.14567 -2.69882,-1.14567 -1.25906,0 -2.19803,0.438189 -2.81221,1.30276 -0.620079,0.870473 -0.925985,1.80945 -0.925985,2.82402zm20.3055 -6.32481c-1.33347,-0.563386 -2.30433,-1.33937 -2.90551,-2.32205 -0.607087,-0.982678 -0.908268,-2.06693 -0.908268,-3.2374 0,-2.00433 0.69567,-3.6626 2.09882,-4.97126 1.40197,-1.30866 3.39331,-1.96654 5.97166,-1.96654 2.55473,0 4.54016,0.657875 5.94922,1.96654 1.41496,1.30866 2.12244,2.96693 2.12244,4.97126 0,1.24606 -0.325985,2.35394 -0.976772,3.33071 -0.644882,0.970867 -1.55906,1.71496 -2.73071,2.22874 1.49055,0.595276 2.62441,1.47165 3.4004,2.62441 0.775985,1.14567 1.16457,2.47323 1.16457,3.97559 0,2.48622 -0.788977,4.50237 -2.37284,6.05434 -1.58386,1.55315 -3.68859,2.32914 -6.31772,2.32914 -2.44843,0 -4.48347,-0.638977 -6.11103,-1.92284 -1.92166,-1.52126 -2.87953,-3.59882 -2.87953,-6.24213 0,-1.45276 0.362599,-2.78504 1.08307,-4.0063 0.719292,-1.21536 1.85906,-2.15433 3.41221,-2.81221zm1.06417 -5.18977c0,1.02638 0.288189,1.82717 0.870473,2.39764 0.582284,0.576378 1.35236,0.864568 2.32205,0.864568 0.977954,0 1.75984,-0.288189 2.34803,-0.870473 0.583465,-0.582284 0.876379,-1.38307 0.876379,-2.41063 0,-0.970867 -0.287008,-1.74095 -0.869292,-2.32323 -0.582284,-0.582284 -1.34646,-0.870473 -2.30433,-0.870473 -0.988583,0 -1.77756,0.294095 -2.36693,0.87756 -0.582284,0.588189 -0.876379,1.36417 -0.876379,2.33504zm-0.475985 11.5146c0,1.42087 0.36378,2.52874 1.09016,3.32481 0.725197,0.794883 1.63347,1.18937 2.72244,1.18937 1.06417,0 1.94764,-0.381496 2.64331,-1.14567 0.694489,-0.764174 1.04528,-1.86614 1.04528,-3.31181 0,-1.25906 -0.356693,-2.27362 -1.06417,-3.0378 -0.707481,-0.762993 -1.60984,-1.14567 -2.69882,-1.14567 -1.25906,0 -2.19685,0.438189 -2.81103,1.30276 -0.620079,0.870473 -0.927166,1.80945 -0.927166,2.82402zm15.8858 -13.5567l0 -4.78229 17.6256 0 0 3.73701c-1.45276,1.43386 -2.9315,3.4878 -4.43977,6.16772 -1.50354,2.67402 -2.64921,5.52284 -3.43701,8.53465 -0.788977,3.01772 -1.17756,5.70945 -1.16457,8.08229l-4.97244 0c0.0885827,-3.71811 0.851575,-7.50709 2.30433,-11.3705 1.44567,-3.86929 3.3815,-7.31812 5.80394,-10.3689l-11.7201 0zm30.9992 21.7394l0 -5.40945 -11.0079 0 0 -4.51418 11.6717 -17.0811 4.32638 0 0 17.0622 3.33662 0 0 4.53307 -3.33662 0 0 5.40945 -4.99016 0zm0 -9.94253l0 -9.19135 -6.17953 9.19135 6.17953 0zm23.974 9.94253l-5.15315 0 0 -19.428c-1.88386,1.76575 -4.10079,3.06733 -6.65434,3.90591l0 -4.67599c1.33937,-0.438189 2.80394,-1.27087 4.38189,-2.49803 1.57795,-1.23425 2.66221,-2.66811 3.24331,-4.30866l4.18229 0 0 27.0047zm17.8146 0l0 -5.40945 -11.0079 0 0 -4.51418 11.6717 -17.0811 4.32638 0 0 17.0622 3.33662 0 0 4.53307 -3.33662 0 0 5.40945 -4.99016 0zm0 -9.94253l0 -9.19135 -6.17953 9.19135 6.17953 0zm23.974 9.94253l-5.15315 0 0 -19.428c-1.88386,1.76575 -4.10079,3.06733 -6.65552,3.90591l0 -4.67599c1.34055,-0.438189 2.80512,-1.27087 4.38307,-2.49803 1.57795,-1.23425 2.66103,-2.66811 3.24331,-4.30866l4.18229 0 0 27.0047zm18.8221 0l-5.15315 0 0 -19.428c-1.88386,1.76575 -4.10079,3.06733 -6.65552,3.90591l0 -4.67599c1.34055,-0.438189 2.80512,-1.27087 4.38307,-2.49803 1.57795,-1.23425 2.66103,-2.66811 3.24331,-4.30866l4.18229 0 0 27.0047zm16.4173 -27.0047c2.61142,0 4.64646,0.933072 6.11103,2.79331 1.74685,2.19685 2.62441,5.84764 2.62441,10.95 0,5.08465 -0.883465,8.74135 -2.64331,10.9701 -1.45276,1.83425 -3.48071,2.74843 -6.09213,2.74843 -2.61024,0 -4.72087,-1.00158 -6.32363,-3.01772 -1.60276,-2.00906 -2.40473,-5.59725 -2.40473,-10.7563 0,-5.06575 0.883465,-8.70946 2.64213,-10.9323 1.45276,-1.83543 3.48189,-2.75551 6.08623,-2.75551zm0 4.27677c-0.618898,0 -1.17756,0.200788 -1.66536,0.595276 -0.487796,0.400394 -0.870473,1.11378 -1.13976,2.14134 -0.349607,1.33347 -0.531496,3.5752 -0.531496,6.72993 0,3.15591 0.162992,5.32323 0.474804,6.49961 0.320079,1.18347 0.720473,1.96536 1.20354,2.36103 0.487796,0.387402 1.03937,0.588189 1.65827,0.588189 0.625985,0 1.18347,-0.200788 1.67126,-0.601182 0.488977,-0.394488 0.871654,-1.10787 1.13976,-2.13543 0.350788,-1.32047 0.532678,-3.5563 0.532678,-6.71221 0,-3.15473 -0.162992,-5.32205 -0.475985,-6.50552 -0.318898,-1.17638 -0.720473,-1.96536 -1.20236,-2.36575 -0.487796,-0.394488 -1.03937,-0.595276 -1.66536,-0.595276z"/>
  <path class="fil8" d="M516.05 577.916l877.908 -38.0351c29.8063,-1.29095 55.1776,20.3882 56.38,48.1394l21.2162 489.721c1.20236,27.7512 -22.2166,51.5445 -52.0052,52.8355l-877.908 38.0339c-29.7886,1.29095 -55.1764,-20.3705 -56.38,-48.1382l-21.2162 -489.722c-1.20354,-27.7689 22.1988,-51.5433 52.0052,-52.8343z"/>
  <polygon class="fil5" points="506.767,874.22 552.013,809.861 557.41,934.424 "/>
  <path class="fil5" d="M1254.25 978.715l155.539 -6.73938c8.78859,-0.380315 16.291,6.50079 16.6713,15.287l3.04725 70.3146c0.380315,8.78623 -6.50079,16.291 -15.2882,16.6713l-155.538 6.73819c-8.78623,0.381496 -16.291,-6.49843 -16.6725,-15.287l-3.04607 -70.3134c-0.380315,-8.78859 6.49843,-16.291 15.287,-16.6713z"/>
  <path class="fil9" d="M1254.25 978.715l155.539 -6.73938c8.78859,-0.380315 16.291,6.50079 16.6713,15.287l0.444095 10.2461 -187.498 8.12363 -0.444095 -10.2461c-0.380315,-8.78859 6.49843,-16.291 15.287,-16.6713z"/>
  <path class="fil10" d="M1258.68 1080.99l155.538 -6.73819c8.78977,-0.380315 15.6685,-7.88505 15.2882,-16.6713l-0.444095 -10.2473 -187.498 8.12363 0.442914 10.2461c0.381496,8.78859 7.88268,15.6685 16.6725,15.287z"/>
  <path class="fil7" d="M1079.73 942.746l-7.62875 0.330709 -1.24606 -28.7622c-2.67638,2.73544 -5.87481,4.80473 -9.60237,6.21024l-0.3 -6.92245c1.95591,-0.735827 4.07008,-2.06221 6.32835,-3.97914 2.25591,-1.92874 3.7689,-4.11969 4.52481,-6.58583l6.19134 -0.26811 1.73268 39.9768zm36.8705 -8.70237l0.307087 7.09134 -26.7496 1.15866c0.180709,-2.69173 0.93189,-5.26772 2.28307,-7.73268 1.34291,-2.4626 4.06772,-5.76615 8.16142,-9.91772 3.30945,-3.34725 5.31851,-5.61615 6.04725,-6.79016 0.979135,-1.62165 1.43976,-3.20079 1.37244,-4.73977 -0.0732284,-1.69606 -0.582284,-2.98347 -1.54016,-3.86103 -0.957875,-0.878741 -2.23819,-1.27795 -3.8504,-1.20827 -1.59449,0.068504 -2.83465,0.605906 -3.73937,1.60158 -0.892914,1.00394 -1.37126,2.62323 -1.42323,4.85433l-7.63347 -0.432284c0.272835,-4.21772 1.56024,-7.29213 3.87166,-9.23032 2.3126,-1.92992 5.25709,-2.97638 8.8441,-3.13229 3.92953,-0.170079 7.063,0.761812 9.39804,2.77795 2.33504,2.02559 3.56929,4.60985 3.7063,7.76103 0.0779528,1.78937 -0.172441,3.50906 -0.742914,5.15788 -0.568111,1.65 -1.51417,3.39095 -2.82874,5.22166 -0.875198,1.21654 -2.46969,2.98465 -4.7752,5.29489 -2.31496,2.31024 -3.77953,3.8504 -4.3878,4.60158 -0.608268,0.751182 -1.10669,1.47756 -1.4752,2.18032l15.1547 -0.656693zm30.0201 -24.3106l-7.35237 1.13504c-0.243307,-1.51299 -0.764174,-2.6126 -1.55551,-3.31181 -0.791339,-0.690945 -1.79882,-1.00984 -3.01299,-0.956694 -1.60394,0.068504 -2.93504,0.851575 -3.99331,2.35512 -1.05,1.4941 -1.61339,4.53662 -1.7126,9.12757 1.81181,-2.32559 4.11851,-3.54803 6.94489,-3.67087 3.18898,-0.138189 5.96693,0.957875 8.34213,3.28819 2.37638,2.31969 3.65197,5.40355 3.81851,9.24095 0.177165,4.07835 -0.87756,7.39371 -3.16299,9.96261 -2.2748,2.55945 -5.29961,3.92599 -9.04371,4.0878 -4.01339,0.173622 -7.39016,-1.24134 -10.1114,-4.25197 -2.72126,-3.01181 -4.24016,-8.07166 -4.54843,-15.1902 -0.316536,-7.29449 0.799607,-12.6095 3.35788,-15.952 2.55709,-3.34134 5.99056,-5.10591 10.3004,-5.29252 3.02126,-0.131102 5.56063,0.612993 7.61812,2.21457 2.0563,1.60984 3.42284,4.01221 4.11142,7.21418zm-16.5756 17.3953c0.10748,2.47559 0.755906,4.37008 1.95473,5.66339 1.19764,1.30512 2.53465,1.92402 3.99922,1.86024 1.41732,-0.0614174 2.56181,-0.667323 3.45945,-1.81063 0.897638,-1.14449 1.28268,-2.9811 1.17402,-5.49331 -0.112205,-2.58662 -0.69567,-4.46457 -1.76811,-5.62559 -1.06181,-1.16102 -2.35748,-1.70788 -3.87756,-1.64173 -1.46457,0.0637796 -2.68229,0.690945 -3.64252,1.88386 -0.969686,1.1941 -1.39606,2.92087 -1.29921,5.16378zm28.5709 -9.31654c-2.01142,-0.748819 -3.49725,-1.83543 -4.4504,-3.25158 -0.962599,-1.41732 -1.47638,-3.00118 -1.55197,-4.73504 -0.12874,-2.96575 0.793701,-5.46615 2.7874,-7.49292 1.99134,-2.02795 4.89685,-3.12874 8.71536,-3.2941 3.78189,-0.164173 6.76182,0.682678 8.93268,2.52874 2.17795,1.84725 3.33071,4.2567 3.45945,7.22363 0.080315,1.84488 -0.330709,3.50551 -1.23071,4.9937 -0.892914,1.47756 -2.19921,2.63858 -3.9,3.47362 2.24528,0.785434 3.97914,2.01024 5.20276,3.66614 1.22244,1.64646 1.88268,3.58701 1.97835,5.81221 0.159449,3.67914 -0.878741,6.71457 -3.1252,9.11457 -2.24528,2.4 -5.31024,3.68504 -9.20198,3.85394 -3.62481,0.155906 -6.67796,-0.659056 -9.17009,-2.45433 -2.94331,-2.12953 -4.49528,-5.14489 -4.66418,-9.0567 -0.0933072,-2.15079 0.359055,-4.14685 1.34764,-6.00119 0.987402,-1.84488 2.61378,-3.30827 4.87087,-4.38071zm1.24134 -7.75158c0.0661418,1.52008 0.544489,2.68701 1.44213,3.4937 0.900001,0.814961 2.05748,1.19173 3.49488,1.13032 1.44567,-0.0625985 2.58662,-0.539764 3.42048,-1.43858 0.82441,-0.900001 1.20827,-2.10473 1.14213,-3.62599 -0.0625985,-1.43622 -0.537402,-2.55827 -1.4374,-3.3815 -0.89882,-0.825591 -2.04803,-1.20354 -3.46536,-1.14213 -1.46457,0.0637796 -2.61378,0.550394 -3.44882,1.45039 -0.823229,0.908268 -1.20945,2.07638 -1.14803,3.51378zm0.034252 17.0752c0.090945,2.10473 0.700394,3.72166 1.82717,4.85197 1.12559,1.1315 2.49567,1.65591 4.10788,1.58622 1.57559,-0.068504 2.85827,-0.689764 3.8374,-1.86614 0.980316,-1.17402 1.42913,-2.82874 1.33583,-4.9689 -0.080315,-1.86378 -0.67441,-3.34252 -1.77047,-4.42796 -1.09606,-1.08543 -2.45551,-1.59213 -4.06772,-1.52244 -1.86378,0.080315 -3.22559,0.788977 -4.07835,2.10709 -0.862205,1.32992 -1.25669,2.73898 -1.19173,4.24016zm29.6551 -10.6642c-2.01142,-0.748819 -3.49725,-1.83425 -4.44922,-3.25158 -0.962599,-1.41614 -1.47756,-3.00118 -1.55315,-4.73504 -0.12874,-2.96575 0.793701,-5.46496 2.7874,-7.49292 1.99134,-2.02677 4.89685,-3.12874 8.71536,-3.2941 3.78189,-0.162992 6.76182,0.682678 8.93268,2.52992 2.17795,1.84606 3.33071,4.2567 3.45945,7.22245 0.080315,1.84488 -0.330709,3.50551 -1.23071,4.9937 -0.892914,1.47874 -2.19921,2.63977 -3.9,3.47481 2.24528,0.785434 3.97914,2.01024 5.20276,3.66614 1.22244,1.64646 1.88268,3.58701 1.97953,5.81103 0.159449,3.68032 -0.879922,6.71457 -3.12638,9.11457 -2.2441,2.4 -5.31024,3.68504 -9.20198,3.85394 -3.62481,0.157087 -6.67796,-0.657875 -9.17009,-2.45433 -2.94331,-2.12835 -4.4941,-5.14489 -4.66418,-9.05552 -0.0933072,-2.15079 0.359055,-4.14803 1.34764,-6.00237 0.987402,-1.8437 2.61378,-3.30827 4.87087,-4.38071zm1.24252 -7.75158c0.0649607,1.52008 0.543308,2.68701 1.44095,3.49488 0.900001,0.81378 2.05748,1.19173 3.49488,1.12913 1.44567,-0.0625985 2.58662,-0.539764 3.42048,-1.43858 0.82441,-0.900001 1.20827,-2.10473 1.14213,-3.62599 -0.0625985,-1.43504 -0.537402,-2.55709 -1.4374,-3.3815 -0.89882,-0.825591 -2.04803,-1.20236 -3.46536,-1.14095 -1.46457,0.0625985 -2.61378,0.549213 -3.44882,1.45039 -0.823229,0.907087 -1.20945,2.07638 -1.14685,3.5126zm0.0330709 17.0752c0.090945,2.10473 0.701575,3.72166 1.82717,4.85315 1.12559,1.13032 2.49567,1.65591 4.10788,1.58622 1.57559,-0.068504 2.85827,-0.690945 3.83859,-1.86614 0.979135,-1.1752 1.42795,-2.82874 1.33465,-4.97008 -0.080315,-1.8626 -0.67441,-3.34134 -1.77047,-4.42796 -1.09606,-1.08425 -2.45551,-1.59213 -4.06772,-1.52244 -1.86378,0.0814961 -3.22559,0.788977 -4.07835,2.10827 -0.862205,1.32874 -1.25669,2.7378 -1.19173,4.23898zm22.6477 -21.0862l-0.307087 -7.08071 26.0918 -1.13032 0.239764 5.53347c-2.05866,2.21693 -4.11496,5.35158 -6.17599,9.41457 -2.05394,4.05473 -3.56693,8.34568 -4.54134,12.8539 -0.97441,4.5189 -1.37599,8.52875 -1.20591,12.0413l-7.35945 0.318898c-0.108662,-5.51103 0.779528,-11.1685 2.68229,-16.9807 1.89213,-5.82048 4.53544,-11.0516 7.92638,-15.7217l-17.3504 0.751182zm47.2843 30.1949l-0.346063 -8.00788 -16.2957 0.705119 -0.28937 -6.68268 16.1823 -26.0339 6.40512 -0.277559 1.0937 25.2579 4.93937 -0.21378 0.290551 6.70985 -4.93937 0.214961 0.347244 8.00788 -7.3878 0.320079zm-0.637796 -14.7189l-0.589371 -13.6075 -8.55827 14.0032 9.14764 -0.39567zm36.1288 13.1811l-7.62875 0.330709 -1.24606 -28.7622c-2.67638,2.73544 -5.87363,4.80473 -9.60119,6.21024l-0.3 -6.92245c1.95591,-0.735827 4.07008,-2.06221 6.32835,-3.97914 2.25591,-1.92874 3.76772,-4.11969 4.52363,-6.58583l6.19252 -0.26811 1.7315 39.9768zm26.3717 -1.14213l-0.347244 -8.00906 -16.2957 0.7063 -0.28937 -6.68268 16.1823 -26.0351 6.40512 -0.276378 1.09488 25.2579 4.93819 -0.21378 0.291733 6.70985 -4.93937 0.21378 0.346063 8.00906 -7.38662 0.320079zm-0.637796 -14.7189l-0.589371 -13.6075 -8.55946 14.0032 9.14883 -0.39567zm36.1276 13.1811l-7.62875 0.329528 -1.24606 -28.761c-2.67638,2.73544 -5.87363,4.80473 -9.60119,6.21024l-0.3 -6.92245c1.95591,-0.735827 4.07008,-2.06221 6.32835,-3.98032 2.25591,-1.92756 3.76772,-4.11851 4.52481,-6.58465l6.19134 -0.26811 1.7315 39.9768zm27.8634 -1.20709l-7.62875 0.329528 -1.24606 -28.761c-2.67638,2.73544 -5.87363,4.80473 -9.60119,6.21024l-0.3 -6.92245c1.95591,-0.735827 4.07008,-2.06221 6.32835,-3.98032 2.25591,-1.92756 3.76772,-4.11851 4.52481,-6.58465l6.19134 -0.26811 1.7315 39.9768zm22.5721 -41.0303c3.86457,-0.167717 6.93662,1.08425 9.2256,3.74292 2.72599,3.14055 4.25906,8.48859 4.58622,16.0429 0.325985,7.52599 -0.746457,12.9957 -3.20788,16.4079 -2.03268,2.80866 -4.97717,4.29331 -8.84292,4.45985 -3.86457,0.167717 -7.05355,-1.17992 -9.55513,-4.06181 -2.50158,-2.87244 -3.9189,-8.13308 -4.24961,-15.7689 -0.324803,-7.50001 0.748819,-12.9508 3.21024,-16.3547 2.03386,-2.80866 4.97717,-4.3004 8.83347,-4.46811zm0.274016 6.33071c-0.917717,0.0389764 -1.73032,0.372048 -2.42717,0.987402 -0.696851,0.623623 -1.21772,1.70669 -1.54961,3.24331 -0.433465,1.99725 -0.557481,5.32678 -0.355512,9.99804 0.201969,4.67126 0.582284,7.86851 1.11969,9.59056 0.549213,1.7315 1.19291,2.86418 1.93228,3.41811 0.746457,0.542126 1.57677,0.80315 2.49331,0.764174 0.927166,-0.0401575 1.73977,-0.373229 2.43662,-0.996851 0.696851,-0.615355 1.21772,-1.69725 1.54961,-3.23386 0.434646,-1.97835 0.559843,-5.29843 0.357874,-9.97087 -0.20315,-4.67126 -0.583465,-7.86851 -1.12087,-9.60001 -0.549213,-1.72205 -1.19291,-2.86418 -1.93228,-3.42638 -0.748819,-0.551575 -1.57677,-0.81378 -2.50394,-0.773623z"/>
  <path class="fil7" d="M669.045 960.538l-7.62756 0.330709 -1.24606 -28.7622c-2.67638,2.73544 -5.87481,4.80473 -9.60237,6.21024l-0.3 -6.92245c1.95591,-0.734646 4.07008,-2.06221 6.32835,-3.97914 2.25591,-1.92874 3.76772,-4.11969 4.52481,-6.58583l6.19134 -0.26811 1.7315 39.9768zm36.8717 -8.70237l0.307087 7.09134 -26.7496 1.15866c0.180709,-2.69173 0.93189,-5.26772 2.28307,-7.7315 1.34291,-2.4626 4.06772,-5.76615 8.16142,-9.91891 3.30945,-3.34725 5.31851,-5.61615 6.04725,-6.79016 0.979135,-1.62165 1.43976,-3.20079 1.37244,-4.73977 -0.0732284,-1.69606 -0.583465,-2.98347 -1.54016,-3.86103 -0.957875,-0.878741 -2.23819,-1.27795 -3.8504,-1.20827 -1.59567,0.068504 -2.83465,0.605906 -3.73937,1.60158 -0.892914,1.00512 -1.37126,2.62323 -1.42323,4.85433l-7.63347 -0.432284c0.271654,-4.21654 1.56024,-7.29213 3.87166,-9.23032 2.3126,-1.92874 5.25709,-2.97638 8.8441,-3.13229 3.92953,-0.170079 7.063,0.761812 9.39804,2.77914 2.33504,2.02441 3.56929,4.60866 3.7063,7.75985 0.0779528,1.78937 -0.172441,3.50906 -0.742914,5.15788 -0.568111,1.65 -1.51417,3.39095 -2.82874,5.22166 -0.875198,1.21654 -2.46969,2.98465 -4.7752,5.29489 -2.31496,2.31024 -3.77953,3.8504 -4.3878,4.60158 -0.608268,0.751182 -1.10669,1.47874 -1.4752,2.18032l15.1547 -0.656693zm30.0201 -24.3106l-7.35237 1.13504c-0.243307,-1.51181 -0.764174,-2.6126 -1.55551,-3.31181 -0.791339,-0.690945 -1.79882,-1.00984 -3.01299,-0.956694 -1.60394,0.068504 -2.93504,0.851575 -3.99331,2.35512 -1.05,1.4941 -1.61339,4.53662 -1.7126,9.12757 1.81181,-2.32559 4.11851,-3.54803 6.94489,-3.67087 3.18898,-0.138189 5.96693,0.957875 8.34213,3.28819 2.37638,2.32087 3.65197,5.40473 3.81851,9.24095 0.177165,4.07953 -0.87756,7.39371 -3.16299,9.96261 -2.2748,2.55945 -5.29961,3.92599 -9.04371,4.0878 -4.01339,0.173622 -7.39016,-1.24016 -10.1114,-4.25197 -2.72126,-3.01181 -4.24016,-8.07166 -4.54843,-15.1902 -0.316536,-7.29449 0.799607,-12.6083 3.3567,-15.9508 2.55827,-3.34252 5.99174,-5.10709 10.3016,-5.2937 3.02126,-0.131102 5.56063,0.612993 7.61693,2.21457 2.05748,1.60984 3.42402,4.01221 4.1126,7.21418zm-16.5756 17.3953c0.10748,2.47559 0.755906,4.37008 1.95473,5.66457 1.19764,1.30394 2.53465,1.92284 3.99922,1.86024 1.41732,-0.0614174 2.56181,-0.668504 3.45945,-1.81181 0.897638,-1.14449 1.28268,-2.9811 1.17402,-5.49331 -0.112205,-2.58662 -0.69567,-4.46339 -1.76811,-5.62441 -1.06181,-1.16221 -2.35748,-1.70906 -3.87756,-1.64291 -1.46457,0.0637796 -2.68229,0.692127 -3.64252,1.88386 -0.969686,1.1941 -1.39606,2.92087 -1.29921,5.16378zm28.5697 -9.31654c-2.01024,-0.748819 -3.49607,-1.83543 -4.44922,-3.25158 -0.962599,-1.41614 -1.47638,-3.00118 -1.55197,-4.73504 -0.12874,-2.96575 0.793701,-5.46615 2.7874,-7.49292 1.99134,-2.02795 4.89685,-3.12874 8.71536,-3.2941 3.78189,-0.164173 6.76182,0.682678 8.93268,2.52992 2.17795,1.84606 3.33071,4.25552 3.45945,7.22245 0.080315,1.84488 -0.330709,3.50551 -1.23071,4.9937 -0.892914,1.47756 -2.19921,2.63977 -3.9,3.47481 2.24528,0.785434 3.97914,2.01024 5.20276,3.66496 1.22244,1.64764 1.88268,3.58701 1.97835,5.81221 0.159449,3.67914 -0.878741,6.71457 -3.1252,9.11457 -2.24528,2.4 -5.31024,3.68504 -9.20198,3.85394 -3.62481,0.157087 -6.67796,-0.657875 -9.17009,-2.45433 -2.94331,-2.12953 -4.49528,-5.14489 -4.66418,-9.0567 -0.0933072,-2.15079 0.359055,-4.14685 1.34764,-6.00119 0.987402,-1.8437 2.61378,-3.30827 4.86969,-4.38071zm1.24252 -7.75158c0.0661418,1.52008 0.544489,2.68701 1.44213,3.4937 0.900001,0.814961 2.05748,1.19291 3.49488,1.13032 1.44567,-0.0625985 2.58662,-0.539764 3.41929,-1.43858 0.825591,-0.900001 1.20945,-2.10473 1.14331,-3.62599 -0.0625985,-1.43504 -0.537402,-2.55709 -1.4374,-3.3815 -0.89882,-0.825591 -2.04803,-1.20354 -3.46536,-1.14213 -1.46457,0.0637796 -2.61378,0.550394 -3.44882,1.45039 -0.823229,0.908268 -1.20945,2.07756 -1.14803,3.51378zm0.034252 17.0752c0.090945,2.10473 0.700394,3.72166 1.82717,4.85197 1.12559,1.1315 2.49567,1.65709 4.10788,1.58622 1.57441,-0.0673229 2.85827,-0.689764 3.8374,-1.86496 0.980316,-1.1752 1.42795,-2.82992 1.33583,-4.97008 -0.080315,-1.86378 -0.67441,-3.34252 -1.77047,-4.42796 -1.09606,-1.08543 -2.45551,-1.59213 -4.06772,-1.52244 -1.86378,0.0814961 -3.22559,0.788977 -4.07835,2.10709 -0.862205,1.32992 -1.25669,2.73898 -1.19173,4.24016zm29.6551 -10.6642c-2.01142,-0.747638 -3.49725,-1.83425 -4.4504,-3.25158 -0.962599,-1.41614 -1.47638,-3.00118 -1.55197,-4.73386 -0.12874,-2.96693 0.793701,-5.46615 2.7874,-7.4941 1.99134,-2.02677 4.89685,-3.12756 8.71536,-3.29292 3.78189,-0.164173 6.76182,0.681497 8.93268,2.52874 2.17795,1.84606 3.33071,4.2567 3.45945,7.22245 0.080315,1.84488 -0.330709,3.50551 -1.23071,4.9937 -0.892914,1.47874 -2.19921,2.63977 -3.9,3.47481 2.24528,0.785434 3.97914,2.01024 5.20276,3.66614 1.22244,1.64646 1.88268,3.58701 1.97953,5.81103 0.159449,3.68032 -0.879922,6.71575 -3.12638,9.11576 -2.24528,2.4 -5.31024,3.68386 -9.20198,3.85276 -3.62481,0.157087 -6.67796,-0.657875 -9.17009,-2.45433 -2.94331,-2.12835 -4.4941,-5.1437 -4.66418,-9.05552 -0.0933072,-2.15079 0.359055,-4.14803 1.34764,-6.00237 0.987402,-1.8437 2.61378,-3.30709 4.87087,-4.38071zm1.24252 -7.7504c0.0649607,1.5189 0.543308,2.68701 1.44095,3.4937 0.900001,0.814961 2.05748,1.19173 3.49488,1.12913 1.44567,-0.0625985 2.58662,-0.538583 3.42048,-1.43858 0.82441,-0.900001 1.20827,-2.10354 1.14213,-3.62481 -0.0625985,-1.43622 -0.537402,-2.55827 -1.4374,-3.38268 -0.89882,-0.82441 -2.04803,-1.20236 -3.46536,-1.14095 -1.46457,0.0625985 -2.61378,0.549213 -3.44882,1.45039 -0.823229,0.907087 -1.20945,2.07638 -1.14685,3.51378zm0.0330709 17.0752c0.090945,2.10473 0.701575,3.72048 1.82717,4.85197 1.12559,1.13032 2.49567,1.65591 4.10788,1.58622 1.57559,-0.068504 2.85827,-0.689764 3.83859,-1.86614 0.979135,-1.1752 1.42795,-2.82874 1.33465,-4.9689 -0.080315,-1.86378 -0.67441,-3.34252 -1.77047,-4.42914 -1.09606,-1.08425 -2.45551,-1.59213 -4.06772,-1.52126 -1.86378,0.080315 -3.22559,0.788977 -4.07835,2.10709 -0.862205,1.32874 -1.25669,2.7378 -1.19173,4.24016zm22.6477 -21.0862l-0.307087 -7.08071 26.0918 -1.1315 0.239764 5.53347c-2.05866,2.21693 -4.11496,5.35158 -6.17599,9.41457 -2.05394,4.05473 -3.56693,8.34568 -4.54134,12.8551 -0.97441,4.51772 -1.37599,8.52875 -1.20591,12.0402l-7.35945 0.318898c-0.108662,-5.51103 0.778347,-11.1685 2.68229,-16.9807 1.89213,-5.82048 4.53544,-11.0516 7.92638,-15.7217l-17.3504 0.752363zm47.2843 30.1937l-0.346063 -8.00788 -16.2957 0.705119 -0.28937 -6.68268 16.1823 -26.0339 6.40512 -0.277559 1.0937 25.2579 4.93937 -0.21378 0.290551 6.71103 -4.93937 0.21378 0.347244 8.00788 -7.3878 0.320079zm-0.637796 -14.7189l-0.589371 -13.6075 -8.55827 14.0043 9.14764 -0.396851zm36.1288 13.1811l-7.62875 0.330709 -1.24606 -28.7622c-2.67638,2.73544 -5.87363,4.80473 -9.60119,6.21024l-0.3 -6.92245c1.95591,-0.734646 4.07008,-2.06221 6.32835,-3.97914 2.25591,-1.92874 3.76772,-4.11969 4.52363,-6.58583l6.19252 -0.26811 1.7315 39.9768zm26.3717 -1.14213l-0.347244 -8.00788 -16.2957 0.705119 -0.28937 -6.68268 16.1823 -26.0339 6.40512 -0.277559 1.0937 25.2579 4.93937 -0.21378 0.291733 6.70985 -4.93937 0.214961 0.346063 8.00788 -7.38662 0.320079zm-0.637796 -14.7189l-0.589371 -13.6075 -8.55946 14.0032 9.14883 -0.39567zm36.1276 13.1811l-7.62875 0.330709 -1.24606 -28.7622c-2.67638,2.73544 -5.87363,4.80473 -9.60119,6.21024l-0.3 -6.92245c1.95591,-0.735827 4.07008,-2.06221 6.32835,-3.97914 2.25591,-1.92874 3.76772,-4.11969 4.52481,-6.58583l6.19134 -0.26811 1.7315 39.9768zm27.8634 -1.20709l-7.62875 0.330709 -1.24606 -28.7622c-2.67638,2.73544 -5.87363,4.80473 -9.60119,6.21024l-0.3 -6.92245c1.95591,-0.735827 4.07008,-2.06221 6.32835,-3.97914 2.25591,-1.92874 3.76772,-4.11969 4.52363,-6.58583l6.19252 -0.26811 1.7315 39.9768zm22.5709 -41.0303c3.86575,-0.166536 6.9378,1.08425 9.22678,3.74292 2.72599,3.14055 4.25906,8.48859 4.58622,16.0429 0.325985,7.52599 -0.746457,12.9957 -3.20788,16.4079 -2.03386,2.80866 -4.97717,4.29331 -8.84292,4.45985 -3.86457,0.167717 -7.05355,-1.17992 -9.55513,-4.06181 -2.50158,-2.87244 -3.9189,-8.13308 -4.24961,-15.7689 -0.324803,-7.50001 0.748819,-12.9496 3.21024,-16.3547 2.03386,-2.80866 4.97717,-4.3004 8.83229,-4.46811zm0.275197 6.33071c-0.917717,0.0389764 -1.73032,0.373229 -2.42717,0.987402 -0.696851,0.624804 -1.21772,1.70669 -1.54961,3.24331 -0.433465,1.99725 -0.558662,5.32678 -0.355512,9.99804 0.201969,4.67244 0.582284,7.86851 1.11969,9.59174 0.549213,1.73032 1.19291,2.86299 1.93228,3.41693 0.746457,0.542126 1.57677,0.80315 2.49331,0.764174 0.927166,-0.0401575 1.73977,-0.372048 2.43662,-0.996851 0.696851,-0.615355 1.21772,-1.69606 1.54961,-3.23386 0.434646,-1.97835 0.559843,-5.29843 0.356693,-9.97087 -0.201969,-4.67126 -0.582284,-7.86733 -1.11969,-9.60001 -0.549213,-1.72205 -1.19291,-2.86418 -1.93228,-3.42638 -0.748819,-0.551575 -1.57677,-0.81378 -2.50394,-0.773623z"/>
  <path class="fil11" d="M614.384 691.325l104.17 -4.513c8.78859,-0.380315 16.3276,7.34764 16.7528,17.1662l3.40512 78.5823c0.425197,9.81851 -6.42048,18.1701 -15.2067,18.5504l-104.17 4.513c-8.78505,0.380315 -16.3276,-7.34292 -16.7528,-17.1662l-3.40512 -78.5812c-0.425197,-9.82324 6.41693,-18.1701 15.2067,-18.5516z"/>
  <path class="fil12" d="M624.605 690.882l5.82756 -0.251575 4.95237 114.298 -5.82874 0.252756 -4.95118 -114.299zm25.9666 -1.12441l5.82756 -0.252756 4.95237 114.299 -5.82874 0.252756 -4.95118 -114.299zm25.9654 -1.12441l5.82756 -0.252756 4.95237 114.298 -5.82756 0.252756 -4.95237 -114.298zm25.9654 -1.12559l5.82874 -0.252756 4.95118 114.299 -5.82756 0.252756 -4.95237 -114.299z"/>
  <path class="fil12" d="M735.028 701.414c0.145276,0.83504 0.240945,1.69134 0.27874,2.56418l0.140551 3.2563 -136.128 5.89725 -0.140551 -3.2563c-0.0377953,-0.872835 -0.0177165,-1.73386 0.0555119,-2.57835l135.794 -5.88308zm1.29213 25.9595l0.252756 5.82756 -136.129 5.89725 -0.251575 -5.82756 136.128 -5.89725zm1.12441 25.9654l0.252756 5.82756 -136.128 5.89843 -0.252756 -5.82874 136.128 -5.89725zm1.12559 25.9654l0.140551 3.2563c0.0377953,0.872835 0.0188977,1.73386 -0.0555119,2.57953l-135.794 5.88308c-0.145276,-0.83504 -0.240945,-1.69134 -0.27874,-2.56536l-0.140551 -3.25512 136.128 -5.89843z"/>
 </g>
</svg>
