<?xml version="1.0" encoding="UTF-8"?>
<!DOCTYPE svg PUBLIC "-//W3C//DTD SVG 1.1//EN" "http://www.w3.org/Graphics/SVG/1.1/DTD/svg11.dtd">
<!-- Creator: CorelDRAW -->
<svg xmlns="http://www.w3.org/2000/svg" xml:space="preserve" width="2048px" height="2048px" style="shape-rendering:geometricPrecision; text-rendering:geometricPrecision; image-rendering:optimizeQuality; fill-rule:evenodd; clip-rule:evenodd"
viewBox="0 0 2048 2048"
 xmlns:xlink="http://www.w3.org/1999/xlink">
 <defs>
  <style type="text/css">
   <![CDATA[
    .fil2 {fill:none}
    .fil4 {fill:#7B838E}
    .fil3 {fill:#BDBDBD}
    .fil10 {fill:#DD2C00}
    .fil9 {fill:#E53935}
    .fil1 {fill:#FFA726}
    .fil0 {fill:#FFCC80}
    .fil5 {fill:#415065;fill-rule:nonzero}
    .fil8 {fill:#7CB342;fill-rule:nonzero}
    .fil6 {fill:#EF5350;fill-rule:nonzero}
    .fil7 {fill:#FFAB40;fill-rule:nonzero}
   ]]>
  </style>
   <clipPath id="id0">
    <path d="M1024 -0.0011811c565.539,0 1024,458.462 1024,1024 0,565.539 -458.462,1024 -1024,1024 -565.539,0 -1024,-458.462 -1024,-1024 0,-565.539 458.462,-1024 1024,-1024z"/>
   </clipPath>
 </defs>
 <g id="Layer_x0020_1">
  <metadata id="CorelCorpID_0Corel-Layer"/>
  <path class="fil0" d="M1024 -0.0011811c565.539,0 1024,458.462 1024,1024 0,565.539 -458.462,1024 -1024,1024 -565.539,0 -1024,-458.462 -1024,-1024 0,-565.539 458.462,-1024 1024,-1024z"/>
  <g style="clip-path:url(#id0)">
   <g id="_289371200">
    <g>
     <polygon id="_2926791921" class="fil1" points="1584,743.999 2719.88,1879.88 2719.88,2696.55 1584,1560.67 "/>
     <polygon id="_292678880" class="fil1" points="1584,1560.67 2719.88,2696.55 2719.76,2698.93 2719.41,2701.25 2718.83,2703.49 2718.05,2705.63 2717.07,2707.67 2715.9,2709.59 2714.55,2711.39 2713.05,2713.05 2711.39,2714.55 2709.59,2715.9 2707.67,2717.07 2705.63,2718.05 2703.49,2718.83 2701.25,2719.41 2698.93,2719.76 2696.55,2719.88 1560.67,1584 1563.05,1583.88 1565.37,1583.53 1567.61,1582.95 1569.75,1582.17 1571.79,1581.18 1573.71,1580.02 1575.51,1578.67 1577.17,1577.17 1578.67,1575.51 1580.02,1573.71 1581.18,1571.79 1582.17,1569.75 1582.95,1567.61 1583.53,1565.37 1583.88,1563.05 "/>
     <polygon id="_292680200" class="fil1" points="1560.67,1584 2696.55,2719.88 1623.22,2719.88 487.334,1584 "/>
     <polygon id="_292680728" class="fil1" points="487.334,1584 1623.22,2719.88 1620.83,2719.76 1618.51,2719.41 1616.28,2718.83 1614.13,2718.05 1612.09,2717.07 1610.17,2715.9 1608.37,2714.55 472.491,1578.67 474.287,1580.02 476.211,1581.18 478.251,1582.17 480.395,1582.95 482.631,1583.53 484.948,1583.88 "/>
     <polygon id="_292680752" class="fil1" points="1578.67,472.491 2714.55,1608.37 2715.9,1610.17 2717.07,1612.09 2718.05,1614.13 2718.83,1616.28 2719.41,1618.51 2719.76,1620.83 2719.88,1623.22 1584,487.334 1583.88,484.948 1583.53,482.631 1582.95,480.395 1582.17,478.251 1581.18,476.211 1580.02,474.287 "/>
     <polygon id="_292680416" class="fil1" points="1584,487.334 2719.88,1623.22 2719.88,1833.22 1584,697.335 "/>
     <polygon id="_292680152" class="fil1" points="1584,697.335 2719.88,1833.22 2719.88,1879.88 1584,743.999 "/>
    </g>
    <path id="_289371008" class="fil1" d="M1584 743.999l0 816.667c0,12.887 -10.448,23.3351 -23.3351,23.3351l-1073.33 0c-12.887,0 -23.3351,-10.448 -23.3351,-23.3351l0 -816.667 0 -46.6654 0 -210c0,-12.887 10.448,-23.3351 23.3351,-23.3351l1073.33 0c12.887,0 23.3351,10.448 23.3351,23.3351l0 210.001 0 46.6642z"/>
   </g>
  </g>
  <path class="fil2" d="M1024 -0.0011811c565.539,0 1024,458.462 1024,1024 0,565.539 -458.462,1024 -1024,1024 -565.539,0 -1024,-458.462 -1024,-1024 0,-565.539 458.462,-1024 1024,-1024z"/>
  <path class="fil3" d="M1584 697.335l0 863.331c0,12.887 -10.448,23.3351 -23.3351,23.3351l-1073.33 0c-12.887,0 -23.3351,-10.448 -23.3351,-23.3351l0 -863.331 1120 0z"/>
  <polygon class="fil4" points="1584,697.335 1584,743.999 463.999,743.999 463.999,697.335 "/>
  <path class="fil5" d="M487.334 463.999l1073.33 0c12.887,0 23.3351,10.448 23.3351,23.3351l0 210 -1120 0 0 -210c0,-12.887 10.448,-23.3351 23.3351,-23.3351z"/>
  <polygon class="fil6" points="1397.44,532.809 1397.44,626.141 1490.77,626.141 1490.77,532.809 "/>
  <polygon class="fil7" points="1070.55,626.141 1163.89,626.141 1163.89,532.809 1070.55,532.809 "/>
  <polygon class="fil8" points="1233.76,532.809 1233.76,626.141 1327.09,626.141 1327.09,532.809 "/>
  <polygon class="fil9" points="767.333,1239.98 1140.67,1239.98 1140.67,1286.65 767.333,1286.65 "/>
  <path class="fil10" d="M1302.45 872.234l12.0602 0c28.5862,0 47.9032,5.47087 57.9532,16.3016 10.0488,10.8319 15.0744,33.1654 15.0744,67.1103l0 79.3926c0,36.626 4.69016,62.7556 14.1803,78.3886 9.49253,15.7441 26.2418,27.0225 50.2489,34.0559 -24.0071,6.7004 -40.7563,17.8677 -50.2489,33.6118 -9.49016,15.6319 -14.1803,41.7614 -14.1803,78.4985l0 78.9473c0,33.8339 -4.91339,56.1662 -14.7402,66.9981 -9.8256,10.7185 -28.3618,16.1906 -55.6075,16.1906 -1.56378,0 -3.90827,-0.112205 -7.25906,-0.334252 -3.2374,-0.22441 -5.69528,-0.335433 -7.48111,-0.335433l0 34.728 15.4099 0c42.8788,0 72.0237,-7.92875 87.0969,-23.6729 15.1866,-15.7453 22.7799,-48.1264 22.7799,-96.8139l0 -79.9501c0,-33.6107 6.25276,-57.2835 18.6473,-71.0186 9.52442,-10.5532 24.3248,-17.0847 44.2973,-19.5437l0 -35.615c-19.9725,-2.45906 -34.7729,-8.98938 -44.2973,-19.5437 -12.3945,-13.8461 -18.6473,-37.6311 -18.6473,-71.2418l0 -79.5036c0,-48.5741 -7.59331,-81.0686 -22.8921,-97.1469 -15.2976,-16.1917 -44.217,-24.2315 -86.9847,-24.2315l-15.4099 0 0 34.728z"/>
  <polygon class="fil9" points="767.333,1123.31 1304,1123.31 1304,1169.98 767.333,1169.98 "/>
  <polygon class="fil9" points="767.333,1006.65 1304,1006.65 1304,1053.31 767.333,1053.31 "/>
  <path class="fil10" d="M745.553 872.234l-12.0602 0c-28.5862,0 -47.9032,5.47087 -57.9532,16.3016 -10.0488,10.8319 -15.0744,33.1654 -15.0744,67.1103l0 79.3926c0,36.626 -4.69016,62.7556 -14.1803,78.3886 -9.49253,15.7441 -26.2418,27.0225 -50.2489,34.0559 24.0071,6.7004 40.7563,17.8677 50.2489,33.6118 9.49016,15.6319 14.1803,41.7614 14.1803,78.4985l0 78.9473c0,33.8339 4.91339,56.1662 14.7402,66.9981 9.8256,10.7185 28.3618,16.1906 55.6075,16.1906 1.56378,0 3.90827,-0.112205 7.25906,-0.334252 3.2374,-0.22441 5.69528,-0.335433 7.48111,-0.335433l0 34.728 -15.4099 0c-42.8788,0 -72.0237,-7.92875 -87.0969,-23.6729 -15.1866,-15.7453 -22.7799,-48.1264 -22.7799,-96.8139l0 -79.9501c0,-33.6107 -6.25276,-57.2835 -18.6473,-71.0186 -9.52442,-10.5532 -24.3248,-17.0847 -44.2973,-19.5437l0 -35.615c19.9725,-2.45906 34.7729,-8.98938 44.2973,-19.5437 12.3945,-13.8461 18.6473,-37.6311 18.6473,-71.2418l0 -79.5036c0,-48.5741 7.59331,-81.0686 22.8921,-97.1469 15.2976,-16.1917 44.217,-24.2315 86.9847,-24.2315l15.4099 0 0 34.728z"/>
 </g>
</svg>
