<?xml version="1.0" encoding="UTF-8"?>
<!DOCTYPE svg PUBLIC "-//W3C//DTD SVG 1.1//EN" "http://www.w3.org/Graphics/SVG/1.1/DTD/svg11.dtd">
<!-- Creator: CorelDRAW -->
<svg xmlns="http://www.w3.org/2000/svg" xml:space="preserve" width="2048px" height="2048px" style="shape-rendering:geometricPrecision; text-rendering:geometricPrecision; image-rendering:optimizeQuality; fill-rule:evenodd; clip-rule:evenodd"
viewBox="0 0 2048 2048"
 xmlns:xlink="http://www.w3.org/1999/xlink">
 <defs>
  <style type="text/css">
   <![CDATA[
    .fil2 {fill:none}
    .fil7 {fill:#00BFA5}
    .fil10 {fill:#03A9F4}
    .fil5 {fill:#263238}
    .fil3 {fill:#424242}
    .fil11 {fill:#455A64}
    .fil8 {fill:#8BC34A}
    .fil1 {fill:#B39DDB}
    .fil0 {fill:#D1C4E9}
    .fil9 {fill:#D50000}
    .fil6 {fill:#FF9800}
    .fil4 {fill:#00ACC1;fill-rule:nonzero}
    .fil12 {fill:#B71C1C;fill-rule:nonzero}
   ]]>
  </style>
   <clipPath id="id0">
    <path d="M1024 -0.0011811c565.539,0 1024,458.462 1024,1024 0,565.539 -458.462,1024 -1024,1024 -565.539,0 -1024,-458.462 -1024,-1024 0,-565.539 458.462,-1024 1024,-1024z"/>
   </clipPath>
 </defs>
 <g id="Layer_x0020_1">
  <metadata id="CorelCorpID_0Corel-Layer"/>
  <path class="fil0" d="M1024 -0.0011811c565.539,0 1024,458.462 1024,1024 0,565.539 -458.462,1024 -1024,1024 -565.539,0 -1024,-458.462 -1024,-1024 0,-565.539 458.462,-1024 1024,-1024z"/>
  <g style="clip-path:url(#id0)">
   <g id="_289351448">
    <g>
     <polygon id="_2433432241" class="fil1" points="827.736,698.191 1963.62,1834.07 1963.53,1834.14 827.65,698.255 "/>
     <polygon id="_243343248" class="fil1" points="1393.84,1265.66 2529.72,2401.54 2510.35,2401.54 1374.47,1265.66 "/>
     <polygon id="_243344736" class="fil1" points="1374.47,1265.66 2510.35,2401.54 2509.78,2403.06 2509.18,2404.55 2508.53,2406.02 2507.84,2407.47 2507.11,2408.89 2506.34,2410.3 2505.53,2411.67 2504.69,2413.03 2503.81,2414.36 2502.89,2415.66 2501.93,2416.94 2500.95,2418.19 2499.92,2419.41 2498.87,2420.6 2497.78,2421.77 2496.66,2422.9 1360.77,1287.02 1361.89,1285.88 1362.98,1284.72 1364.04,1283.53 1365.06,1282.31 1366.05,1281.06 1367.01,1279.78 1367.93,1278.48 1368.81,1277.15 1369.65,1275.79 1370.46,1274.41 1371.23,1273.01 1371.96,1271.58 1372.65,1270.13 1373.3,1268.66 1373.9,1267.17 "/>
     <polygon id="_243344832" class="fil1" points="1360.77,1287.02 2496.66,2422.9 2495.66,2423.85 2494.65,2424.78 2493.61,2425.68 2492.56,2426.56 2491.48,2427.42 2490.38,2428.25 2489.25,2429.05 2488.11,2429.83 2486.95,2430.59 2485.77,2431.31 2484.57,2432.01 2483.35,2432.68 2482.12,2433.32 2480.87,2433.93 2479.6,2434.52 2478.31,2435.07 2477.01,2435.6 2475.69,2436.09 2474.36,2436.55 2473.01,2436.99 2471.65,2437.38 2470.28,2437.75 2468.89,2438.09 2467.49,2438.39 2466.08,2438.65 2464.66,2438.89 2463.22,2439.09 2461.77,2439.25 2460.32,2439.38 2458.85,2439.47 2457.37,2439.53 2455.89,2439.54 1320.01,1303.66 1321.49,1303.64 1322.97,1303.59 1324.43,1303.5 1325.89,1303.37 1327.34,1303.2 1328.77,1303.01 1330.2,1302.77 1331.61,1302.51 1333.01,1302.2 1334.4,1301.87 1335.77,1301.5 1337.13,1301.1 1338.48,1300.67 1339.81,1300.21 1341.13,1299.72 1342.43,1299.19 1343.72,1298.64 1344.98,1298.05 1346.24,1297.44 1347.47,1296.8 1348.69,1296.13 1349.89,1295.43 1351.07,1294.7 1352.23,1293.95 1353.37,1293.17 1354.49,1292.37 1355.59,1291.54 1356.67,1290.68 1357.73,1289.8 1358.77,1288.9 1359.78,1287.97 "/>
     <polygon id="_243344592" class="fil1" points="1320.01,1303.66 2455.89,2439.54 2399.78,2439.54 1263.9,1303.66 "/>
     <polygon id="_243345096" class="fil1" points="1263.9,1303.66 2399.78,2439.54 2399.78,2480.31 1263.9,1344.43 "/>
     <polygon id="_243344856" class="fil1" points="1360.77,1361.07 2496.66,2496.95 2497.78,2498.08 2498.87,2499.25 2499.92,2500.44 2500.94,2501.66 2501.93,2502.91 2502.89,2504.19 2503.81,2505.49 2504.69,2506.82 2505.53,2508.18 2506.34,2509.56 2507.11,2510.96 2507.84,2512.39 2508.53,2513.83 2509.18,2515.3 2509.78,2516.8 2510.35,2518.31 1374.47,1382.42 1373.9,1380.91 1373.3,1379.42 1372.65,1377.95 1371.96,1376.5 1371.23,1375.08 1370.46,1373.67 1369.65,1372.29 1368.81,1370.94 1367.93,1369.61 1367.01,1368.31 1366.05,1367.03 1365.06,1365.78 1364.04,1364.56 1362.98,1363.37 1361.89,1362.2 "/>
     <polygon id="_243345072" class="fil1" points="1393.84,1382.42 2529.72,2518.31 2529.72,2681.88 1393.84,1546 "/>
     <polygon id="_243344568" class="fil1" points="1393.84,1546 2529.72,2681.88 2510.35,2681.88 1374.47,1546 "/>
     <polygon id="_243344400" class="fil1" points="1374.47,1546 2510.35,2681.88 2509.78,2683.4 2509.18,2684.89 2508.53,2686.36 2507.84,2687.81 2507.11,2689.23 2506.34,2690.63 2505.53,2692.01 2504.69,2693.37 2503.81,2694.7 2502.89,2696 2501.93,2697.28 2500.94,2698.53 2499.92,2699.75 2498.87,2700.94 2497.78,2702.11 2496.66,2703.24 1360.77,1567.36 1361.89,1566.22 1362.98,1565.06 1364.04,1563.87 1365.06,1562.65 1366.05,1561.4 1367.01,1560.12 1367.93,1558.82 1368.81,1557.49 1369.65,1556.13 1370.46,1554.75 1371.23,1553.35 1371.96,1551.92 1372.65,1550.47 1373.3,1549 1373.9,1547.51 "/>
     <polygon id="_243344448" class="fil1" points="784.101,1023.91 1919.98,2159.79 1863.87,2159.79 727.992,1023.91 "/>
     <polygon id="_243344808" class="fil1" points="784.101,1303.66 1919.98,2439.54 1863.87,2439.54 727.992,1303.66 "/>
     <polygon id="_243345792" class="fil1" points="673.53,1546 1809.41,2681.88 1790.04,2681.88 654.155,1546 "/>
     <polygon id="_243345480" class="fil1" points="727.992,1584 1863.87,2719.88 1862.39,2719.86 1860.91,2719.81 1859.45,2719.72 1857.99,2719.59 1856.54,2719.43 1855.11,2719.23 1853.68,2718.99 1852.27,2718.73 1850.87,2718.43 1849.48,2718.09 1848.11,2717.72 1846.75,2717.33 1845.4,2716.89 1844.07,2716.43 1842.75,2715.94 1841.45,2715.41 1840.16,2714.86 1838.9,2714.27 1837.64,2713.66 1836.41,2713.02 1835.19,2712.35 1833.99,2711.65 1832.81,2710.92 1831.65,2710.17 1830.51,2709.39 1829.39,2708.59 1828.29,2707.76 1827.21,2706.9 1826.15,2706.02 690.266,1570.14 691.325,1571.02 692.405,1571.88 693.506,1572.71 694.627,1573.51 695.769,1574.29 696.93,1575.04 698.11,1575.77 699.31,1576.47 700.527,1577.14 701.762,1577.78 703.014,1578.39 704.284,1578.98 705.569,1579.53 706.871,1580.06 708.188,1580.55 709.519,1581.01 710.867,1581.44 712.228,1581.84 713.601,1582.21 714.989,1582.54 716.389,1582.84 717.801,1583.11 719.226,1583.35 720.661,1583.54 722.108,1583.71 723.564,1583.83 725.031,1583.93 726.507,1583.98 "/>
     <polygon id="_243345840" class="fil1" points="673.53,1265.66 1809.41,2401.54 1790.04,2401.54 654.155,1265.66 "/>
     <polygon id="_243345432" class="fil1" points="727.992,1303.66 1863.87,2439.54 1862.39,2439.53 1860.91,2439.47 1859.45,2439.38 1857.99,2439.25 1856.54,2439.09 1855.11,2438.89 1853.68,2438.65 1852.27,2438.39 1850.87,2438.09 1849.48,2437.75 1848.11,2437.38 1846.75,2436.99 1845.4,2436.55 1844.07,2436.09 1842.75,2435.6 1841.45,2435.07 1840.16,2434.52 1838.9,2433.93 1837.64,2433.32 1836.41,2432.68 1835.19,2432.01 1833.99,2431.31 1832.81,2430.59 1831.65,2429.83 1830.51,2429.05 1829.39,2428.25 1828.29,2427.42 1827.21,2426.56 1826.15,2425.68 1825.11,2424.78 689.23,1288.9 690.266,1289.8 691.325,1290.68 692.405,1291.54 693.506,1292.37 694.627,1293.17 695.769,1293.95 696.93,1294.7 698.11,1295.43 699.31,1296.13 700.527,1296.8 701.762,1297.44 703.014,1298.05 704.284,1298.64 705.569,1299.19 706.871,1299.72 708.188,1300.21 709.519,1300.67 710.867,1301.1 712.228,1301.5 713.601,1301.87 714.989,1302.2 716.389,1302.51 717.801,1302.77 719.226,1303.01 720.661,1303.2 722.108,1303.37 723.564,1303.5 725.031,1303.59 726.507,1303.64 "/>
     <polygon id="_243345504" class="fil1" points="673.53,985.913 1809.41,2121.8 1790.04,2121.8 654.155,985.913 "/>
     <polygon id="_243345744" class="fil1" points="1360.77,1567.36 2496.66,2703.24 2495.66,2704.19 2494.65,2705.12 2493.61,2706.02 2492.56,2706.9 2491.48,2707.76 2490.38,2708.59 2489.25,2709.39 2488.11,2710.17 2486.95,2710.92 2485.77,2711.65 2484.57,2712.35 2483.35,2713.02 2482.12,2713.66 2480.87,2714.27 2479.6,2714.86 2478.31,2715.41 2477.01,2715.94 2475.69,2716.43 2474.36,2716.89 2473.01,2717.33 2471.65,2717.72 2470.28,2718.09 2468.89,2718.43 2467.49,2718.73 2466.08,2718.99 2464.66,2719.23 2463.22,2719.43 2461.77,2719.59 2460.32,2719.72 2458.85,2719.81 2457.37,2719.86 2455.89,2719.88 1320.01,1584 1321.49,1583.98 1322.97,1583.93 1324.43,1583.83 1325.89,1583.71 1327.34,1583.54 1328.77,1583.35 1330.2,1583.11 1331.61,1582.84 1333.01,1582.54 1334.4,1582.21 1335.77,1581.84 1337.13,1581.44 1338.48,1581.01 1339.81,1580.55 1341.13,1580.06 1342.43,1579.53 1343.72,1578.98 1344.98,1578.39 1346.24,1577.78 1347.47,1577.14 1348.69,1576.47 1349.89,1575.77 1351.07,1575.04 1352.23,1574.29 1353.37,1573.51 1354.49,1572.71 1355.59,1571.88 1356.67,1571.02 1357.73,1570.14 1358.77,1569.24 1359.78,1568.31 "/>
     <polygon id="_243345624" class="fil1" points="727.992,1023.91 1863.87,2159.79 1862.39,2159.78 1860.91,2159.72 1859.45,2159.63 1857.99,2159.5 1856.54,2159.34 1855.11,2159.14 1853.68,2158.91 1852.27,2158.64 1850.87,2158.34 1849.48,2158 1848.11,2157.64 1846.75,2157.24 1845.4,2156.81 1844.07,2156.34 1842.75,2155.85 1841.45,2155.32 1840.16,2154.77 1838.9,2154.19 1837.64,2153.57 1836.41,2152.93 1835.19,2152.26 1833.99,2151.56 1832.81,2150.84 1831.65,2150.08 1830.51,2149.31 1829.39,2148.5 1828.29,2147.67 1827.21,2146.81 1826.15,2145.93 1825.11,2145.03 1824.1,2144.1 688.216,1008.22 689.23,1009.15 690.266,1010.05 691.325,1010.93 692.405,1011.79 693.506,1012.62 694.627,1013.42 695.769,1014.2 696.93,1014.95 698.11,1015.68 699.31,1016.38 700.527,1017.05 701.762,1017.69 703.014,1018.3 704.284,1018.89 705.569,1019.44 706.871,1019.97 708.188,1020.46 709.519,1020.92 710.867,1021.35 712.228,1021.75 713.601,1022.12 714.989,1022.46 716.389,1022.76 717.801,1023.02 719.226,1023.26 720.661,1023.46 722.108,1023.62 723.564,1023.75 725.031,1023.84 726.507,1023.89 "/>
     <polygon id="_243345672" class="fil1" points="1320.01,1584 2455.89,2719.88 1863.87,2719.88 727.992,1584 "/>
     <polygon id="_243345312" class="fil1" points="1320.01,1023.91 2455.89,2159.79 2399.78,2159.79 1263.9,1023.91 "/>
     <polygon id="_243345648" class="fil1" points="1130.7,471.333 2266.58,1607.22 2267.87,1608.77 2268.99,1610.43 2269.93,1612.19 2270.68,1614.04 2271.23,1615.97 2271.57,1617.97 2271.69,1620.03 1135.81,484.152 1135.69,482.092 1135.35,480.09 1134.8,478.159 1134.05,476.308 1133.11,474.546 1131.99,472.885 "/>
     <polygon id="_243346272" class="fil1" points="1135.81,484.152 2271.69,1620.03 2271.69,1801.4 1135.81,665.514 "/>
     <polygon id="_243346296" class="fil1" points="1220.14,672.847 2356.03,1808.73 2357.31,1810.28 2358.43,1811.94 2359.37,1813.7 2360.13,1815.56 2360.68,1817.49 2361.02,1819.49 2361.13,1821.55 1225.25,685.666 1225.13,683.606 1224.8,681.604 1224.25,679.673 1223.49,677.822 1222.55,676.06 1221.43,674.399 "/>
     <polygon id="_243346320" class="fil1" points="1225.25,685.666 2361.13,1821.55 2361.1,1822.57 2361.02,1823.58 2360.88,1824.57 2360.69,1825.55 2360.45,1826.51 2360.15,1827.46 2359.81,1828.38 2359.42,1829.28 2358.99,1830.17 2358.51,1831.03 2357.98,1831.86 2357.42,1832.67 2356.81,1833.45 2356.17,1834.21 2355.48,1834.94 2354.76,1835.63 1218.88,699.751 1219.6,699.054 1220.28,698.327 1220.93,697.571 1221.54,696.788 1222.1,695.979 1222.63,695.144 1223.11,694.284 1223.54,693.402 1223.93,692.499 1224.27,691.574 1224.57,690.63 1224.81,689.669 1225,688.691 1225.14,687.696 1225.22,686.688 "/>
     <polygon id="_243346632" class="fil1" points="1218.88,699.751 2354.76,1835.63 2279.67,1920.22 1143.79,784.336 "/>
     <polygon id="_243346416" class="fil1" points="1362.98,803.278 2498.87,1939.16 2499.92,1940.35 2500.95,1941.57 2501.93,1942.82 2502.89,1944.1 2503.81,1945.4 2504.69,1946.73 2505.53,1948.09 2506.34,1949.47 2507.11,1950.87 2507.84,1952.3 2508.53,1953.75 2509.18,1955.22 2509.78,1956.71 2510.35,1958.22 1374.47,822.337 1373.9,820.825 1373.3,819.335 1372.65,817.864 1371.96,816.415 1371.23,814.99 1370.46,813.586 1369.65,812.207 1368.81,810.852 1367.93,809.522 1367.01,808.218 1366.05,806.942 1365.06,805.692 1364.04,804.471 "/>
     <polygon id="_243346152" class="fil1" points="1393.84,822.337 2529.72,1958.22 2529.72,2121.8 1393.84,985.913 "/>
     <polygon id="_243346248" class="fil1" points="1393.84,985.913 2529.72,2121.8 2510.35,2121.8 1374.47,985.913 "/>
     <polygon id="_243346656" class="fil1" points="1374.47,985.913 2510.35,2121.8 2509.78,2123.31 2509.18,2124.8 2508.53,2126.27 2507.84,2127.72 2507.11,2129.14 2506.34,2130.55 2505.53,2131.93 2504.69,2133.28 2503.81,2134.61 2502.89,2135.91 2501.93,2137.19 2500.94,2138.44 2499.92,2139.66 2498.87,2140.85 2497.78,2142.02 2496.66,2143.15 1360.77,1007.27 1361.89,1006.14 1362.98,1004.97 1364.04,1003.78 1365.06,1002.56 1366.05,1001.31 1367.01,1000.03 1367.93,998.728 1368.81,997.398 1369.65,996.043 1370.46,994.664 1371.23,993.261 1371.96,991.835 1372.65,990.386 1373.3,988.915 1373.9,987.425 "/>
     <polygon id="_243346176" class="fil1" points="1360.77,1007.27 2496.66,2143.15 2495.66,2144.1 2494.65,2145.03 2493.61,2145.93 2492.56,2146.81 2491.48,2147.67 2490.38,2148.5 2489.25,2149.31 2488.11,2150.08 2486.95,2150.84 2485.77,2151.56 2484.57,2152.26 2483.35,2152.93 2482.12,2153.57 2480.87,2154.19 2479.6,2154.77 2478.31,2155.32 2477.01,2155.85 2475.69,2156.34 2474.36,2156.81 2473.01,2157.24 2471.65,2157.64 2470.28,2158 2468.89,2158.34 2467.49,2158.64 2466.08,2158.91 2464.66,2159.14 2463.22,2159.34 2461.77,2159.5 2460.32,2159.63 2458.85,2159.72 2457.37,2159.78 2455.89,2159.79 1320.01,1023.91 1321.49,1023.89 1322.97,1023.84 1324.43,1023.75 1325.89,1023.62 1327.34,1023.46 1328.77,1023.26 1330.2,1023.02 1331.61,1022.76 1333.01,1022.46 1334.4,1022.12 1335.77,1021.75 1337.13,1021.35 1338.48,1020.92 1339.81,1020.46 1341.13,1019.97 1342.43,1019.44 1343.72,1018.89 1344.98,1018.3 1346.24,1017.69 1347.47,1017.05 1348.69,1016.38 1349.89,1015.68 1351.07,1014.95 1352.23,1014.2 1353.37,1013.42 1354.49,1012.62 1355.59,1011.79 1356.67,1010.93 1357.73,1010.05 1358.77,1009.15 1359.78,1008.22 "/>
     <polygon id="_243346032" class="fil1" points="1263.9,1023.91 2399.78,2159.79 2399.78,2199.97 1263.9,1064.09 "/>
     <polygon id="_243347256" class="fil1" points="1361.89,1081.86 2497.78,2217.74 2498.87,2218.91 2499.92,2220.1 2500.94,2221.32 2501.93,2222.57 2502.89,2223.85 2503.81,2225.15 2504.69,2226.48 2505.53,2227.84 2506.34,2229.22 2507.11,2230.62 2507.84,2232.05 2508.53,2233.5 2509.18,2234.97 2509.78,2236.46 2510.35,2237.97 1374.47,1102.09 1373.9,1100.57 1373.3,1099.08 1372.65,1097.61 1371.96,1096.16 1371.23,1094.74 1370.46,1093.34 1369.65,1091.96 1368.81,1090.6 1367.93,1089.27 1367.01,1087.97 1366.05,1086.69 1365.06,1085.44 1364.04,1084.22 1362.98,1083.03 "/>
     <polygon id="_243347112" class="fil1" points="1393.84,1102.09 2529.72,2237.97 2529.72,2401.54 1393.84,1265.66 "/>
    </g>
    <path id="_289351376" class="fil1" d="M1393.84 1102.09l0 163.576 -19.3748 0c-2.90079,8.11418 -7.62993,15.3945 -13.6949,21.3555 -10.448,10.2697 -24.8788,16.6441 -40.767,16.6441l-56.1083 0 0 40.7634 56.1083 0c15.8882,0 30.3189,6.37441 40.767,16.6429 6.06378,5.96339 10.7941,13.2425 13.6949,21.3567l19.3748 0 0 163.577 -19.3748 0c-2.90079,8.11418 -7.63111,15.3945 -13.6949,21.3555 -10.448,10.2697 -24.8788,16.6441 -40.767,16.6441l-592.015 0c-15.887,0 -30.3177,-6.37441 -40.767,-16.6441 -6.06378,-5.96103 -10.7941,-13.2413 -13.6949,-21.3555l-19.3748 0 0 -163.577 19.3748 0c2.90079,-8.11418 7.63111,-15.3933 13.6949,-21.3567 10.4492,-10.2685 24.8799,-16.6429 40.767,-16.6429l56.1095 0 0 -40.7634 -56.1095 0c-15.887,0 -30.3177,-6.37441 -40.767,-16.6441 -6.06497,-5.96103 -10.7941,-13.2413 -13.6949,-21.3555l-19.3748 0 0 -163.576 19.3748 0c2.90079,-8.11418 7.63111,-15.3945 13.6949,-21.3567 10.4492,-10.2685 24.8799,-16.6429 40.767,-16.6429l56.1095 0 0 -40.174 -56.1095 0c-15.887,0 -30.3177,-6.37441 -40.767,-16.6441 -6.06378,-5.96103 -10.7941,-13.2413 -13.6949,-21.3555l-19.3748 0 0 -163.576 19.3748 0c2.90079,-8.11418 7.62993,-15.3945 13.6949,-21.3567 10.4492,-10.2685 24.8799,-16.6441 40.767,-16.6441l176.217 0 -76.4729 -86.1449 -0.0862205 0.0637796c-7.71497,-8.69056 -6.15119,-21.3732 3.49252,-28.3252 4.12559,-2.9752 9.06379,-4.41733 13.9677,-4.41615l67.0831 0 0 -181.362c0,-11.1295 10.011,-20.152 22.3606,-20.152l178.892 0c12.3508,0 22.3618,9.02245 22.3618,20.152l0 181.362 67.0819 0c12.3484,0 22.3606,9.02245 22.3606,20.152 0,5.48268 -2.42953,10.4528 -6.37205,14.0847l-75.0886 84.5859 176.217 0c15.8882,0 30.3189,6.3756 40.767,16.6441 6.06497,5.96221 10.7941,13.2425 13.6949,21.3567l19.3748 0 0 163.576 -19.3748 0c-2.90079,8.11418 -7.63111,15.3945 -13.6949,21.3555 -10.448,10.2697 -24.8788,16.6441 -40.767,16.6441l-56.1083 0 0 40.174 56.1083 0c15.8882,0 30.3189,6.37441 40.767,16.6429 6.06378,5.96221 10.7941,13.2425 13.6949,21.3567l19.3748 0z"/>
   </g>
  </g>
  <path class="fil2" d="M1024 -0.0011811c565.539,0 1024,458.462 1024,1024 0,565.539 -458.462,1024 -1024,1024 -565.539,0 -1024,-458.462 -1024,-1024 0,-565.539 458.462,-1024 1024,-1024z"/>
  <rect class="fil3" x="1163.94" y="984.253" width="99.9575" height="479.799"/>
  <rect class="fil3" x="784.101" y="984.253" width="99.9575" height="479.799"/>
  <path class="fil4" d="M727.992 1344.43l592.015 0c15.8882,0 30.3177,6.37441 40.767,16.6441 10.4469,10.2697 16.9323,24.4536 16.9323,40.0701l0 126.148c0,15.6165 -6.48544,29.8004 -16.9323,40.0701 -10.448,10.2697 -24.8788,16.6441 -40.767,16.6441l-592.015 0c-15.8882,0 -30.3177,-6.37441 -40.7658,-16.6441 -10.448,-10.2697 -16.9335,-24.4536 -16.9335,-40.0701l0 -126.148c0,-15.6165 6.48544,-29.8004 16.9335,-40.0701 10.448,-10.2697 24.8776,-16.6441 40.7658,-16.6441z"/>
  <rect class="fil5" x="654.155" y="1382.42" width="739.689" height="163.576"/>
  <rect class="fil6" x="700.939" y="1454" width="48.9105" height="20.4161"/>
  <rect class="fil7" x="778.707" y="1454" width="48.9105" height="20.4161"/>
  <rect class="fil8" x="856.475" y="1454" width="48.9105" height="20.4161"/>
  <rect class="fil9" x="934.243" y="1454" width="48.9105" height="20.4161"/>
  <rect class="fil10" x="1086.64" y="1454" width="48.9105" height="20.4161"/>
  <rect class="fil11" x="1215.82" y="1468.7" width="131.242" height="20.4161"/>
  <rect class="fil11" x="1215.82" y="1439.31" width="131.242" height="20.4161"/>
  <path class="fil4" d="M727.992 784.336l592.015 0c15.8882,0 30.3177,6.3756 40.767,16.6441 10.4469,10.2709 16.9323,24.4536 16.9323,40.0713l0 126.147c0,15.6177 -6.48544,29.8016 -16.9323,40.0701 -10.448,10.2697 -24.8788,16.6441 -40.767,16.6441l-592.015 0c-15.8882,0 -30.3177,-6.37441 -40.7658,-16.6441 -10.448,-10.2685 -16.9335,-24.4524 -16.9335,-40.0701l0 -126.147c0,-15.6177 6.48544,-29.8004 16.9335,-40.0713 10.448,-10.2685 24.8776,-16.6441 40.7658,-16.6441z"/>
  <rect class="fil5" x="654.155" y="822.337" width="739.689" height="163.576"/>
  <rect class="fil6" x="700.939" y="893.917" width="48.9105" height="20.4161"/>
  <rect class="fil7" x="778.707" y="893.917" width="48.9105" height="20.4161"/>
  <rect class="fil8" x="856.475" y="893.917" width="48.9105" height="20.4161"/>
  <rect class="fil9" x="934.243" y="893.917" width="48.9105" height="20.4161"/>
  <rect class="fil10" x="1086.64" y="893.917" width="48.9105" height="20.4161"/>
  <rect class="fil11" x="1215.82" y="908.612" width="131.242" height="20.4161"/>
  <rect class="fil11" x="1215.82" y="879.221" width="131.242" height="20.4161"/>
  <path class="fil4" d="M727.992 1064.09l592.015 0c15.8882,0 30.3177,6.37441 40.767,16.6429 10.4469,10.2709 16.9323,24.4536 16.9323,40.0713l0 126.148c0,15.6165 -6.48544,29.8004 -16.9323,40.0689 -10.448,10.2697 -24.8788,16.6453 -40.767,16.6453l-592.015 0c-15.8882,0 -30.3177,-6.3756 -40.7658,-16.6453 -10.448,-10.2685 -16.9335,-24.4524 -16.9335,-40.0689l0 -126.148c0,-15.6177 6.48544,-29.8004 16.9335,-40.0713 10.448,-10.2685 24.8776,-16.6429 40.7658,-16.6429z"/>
  <rect class="fil5" x="654.155" y="1102.09" width="739.689" height="163.576"/>
  <rect class="fil6" x="700.939" y="1173.67" width="48.9105" height="20.4161"/>
  <rect class="fil7" x="778.707" y="1173.67" width="48.9105" height="20.4161"/>
  <rect class="fil8" x="856.475" y="1173.67" width="48.9105" height="20.4161"/>
  <rect class="fil9" x="934.243" y="1173.67" width="48.9105" height="20.4161"/>
  <rect class="fil10" x="1086.64" y="1173.67" width="48.9105" height="20.4161"/>
  <rect class="fil11" x="1215.82" y="1188.36" width="131.242" height="20.4161"/>
  <rect class="fil11" x="1215.82" y="1158.97" width="131.242" height="20.4161"/>
  <path class="fil12" d="M1135.81 665.514l0 -181.362c0,-11.1295 -10.011,-20.152 -22.3618,-20.152l-178.892 0c-12.3496,0 -22.3606,9.02245 -22.3606,20.152l0 181.362 -67.0831 0 0 0.0011811c-4.90394,-0.00236221 -9.84213,1.43976 -13.9677,4.41496 -9.64371,6.95197 -11.2075,19.6347 -3.49252,28.3252l0.0862205 -0.0637796 177.465 199.911c1.27559,1.78347 2.8878,3.41575 4.82835,4.81418 9.64371,6.95197 23.7154,5.54292 31.4303,-3.14646l-17.4614 -12.5882 17.3823 12.5162 177.497 -199.948c3.94252,-3.63189 6.37205,-8.60198 6.37205,-14.0847 0,-11.1295 -10.0122,-20.152 -22.3606,-20.152l-67.0819 0z"/>
 </g>
</svg>
