<?xml version="1.0" encoding="UTF-8"?>
<!DOCTYPE svg PUBLIC "-//W3C//DTD SVG 1.1//EN" "http://www.w3.org/Graphics/SVG/1.1/DTD/svg11.dtd">
<!-- Creator: CorelDRAW -->
<svg xmlns="http://www.w3.org/2000/svg" xml:space="preserve" width="6.82666in" height="6.82666in" style="shape-rendering:geometricPrecision; text-rendering:geometricPrecision; image-rendering:optimizeQuality; fill-rule:evenodd; clip-rule:evenodd"
viewBox="0 0 6.82666 6.82666"
 xmlns:xlink="http://www.w3.org/1999/xlink">
 <defs>
  <style type="text/css">
   <![CDATA[
    .fil2 {fill:none}
    .fil6 {fill:#00BCD4}
    .fil7 {fill:#212121}
    .fil14 {fill:#272727}
    .fil11 {fill:#43A047}
    .fil8 {fill:#757575}
    .fil16 {fill:#A31F3F}
    .fil4 {fill:#CC7C54}
    .fil5 {fill:#CC9567}
    .fil1 {fill:#CE93D8}
    .fil12 {fill:#D4855D}
    .fil17 {fill:#E0E0E0}
    .fil0 {fill:#E1BEE7}
    .fil15 {fill:#E33963}
    .fil9 {fill:#EEEEEE}
    .fil3 {fill:#EFB88A}
    .fil13 {fill:#272727;fill-rule:nonzero}
    .fil10 {fill:#3B210F;fill-rule:nonzero}
   ]]>
  </style>
   <clipPath id="id0">
    <path d="M3.41333 0c1.88513,0 3.41333,1.5282 3.41333,3.41333 0,1.88513 -1.5282,3.41333 -3.41333,3.41333 -1.88513,0 -3.41333,-1.5282 -3.41333,-3.41333 0,-1.88513 1.5282,-3.41333 3.41333,-3.41333z"/>
   </clipPath>
 </defs>
 <g id="Layer_x0020_1">
  <metadata id="CorelCorpID_0Corel-Layer"/>
  <path class="fil0" d="M3.41333 0c1.88513,0 3.41333,1.5282 3.41333,3.41333 0,1.88513 -1.5282,3.41333 -3.41333,3.41333 -1.88513,0 -3.41333,-1.5282 -3.41333,-3.41333 0,-1.88513 1.5282,-3.41333 3.41333,-3.41333z"/>
  <g style="clip-path:url(#id0)">
   <g id="_435556384">
    <g>
     <path id="_4303751601" class="fil1" d="M6.34191 5.8553l0 0zm-3.78627 -3.78627l0 0z"/>
     <polygon id="_430375280" class="fil1" points="4.38896,1.75778 8.17523,5.54405 7.828,5.62019 4.04174,1.83391 "/>
     <polygon id="_431860688" class="fil1" points="4.04174,1.83391 7.828,5.62019 7.828,5.87733 4.04174,2.09106 "/>
     <polygon id="_431861144" class="fil1" points="4.04174,2.09106 7.828,5.87733 7.8277,5.87743 7.8274,5.87754 7.8271,5.87764 7.8268,5.87774 7.82649,5.87784 7.82619,5.87794 7.82589,5.87805 7.82559,5.87815 4.03932,2.09188 4.03962,2.09178 4.03993,2.09167 4.04022,2.09157 4.04053,2.09147 4.04083,2.09137 4.04113,2.09126 4.04143,2.09116 "/>
     <polygon id="_431860904" class="fil1" points="4.05528,2.10836 7.84155,5.89463 7.84661,5.90044 7.85154,5.90639 7.85633,5.91251 7.86099,5.91879 7.8655,5.92524 7.86987,5.93184 7.87409,5.93862 7.87817,5.94557 7.88209,5.95268 7.88585,5.95997 7.88946,5.96744 7.89292,5.97508 7.8962,5.98291 7.89933,5.99091 7.90229,5.9991 7.90508,6.00748 7.9077,6.01604 7.91014,6.0248 7.91241,6.03374 7.91449,6.04288 7.9164,6.05222 7.91812,6.06176 7.91965,6.07149 7.92099,6.08143 7.92214,6.09157 7.92309,6.10193 7.92385,6.11248 7.92441,6.12325 7.92476,6.13424 4.1385,2.34796 4.13814,2.33698 4.13759,2.32621 4.13683,2.31565 4.13587,2.3053 4.13472,2.29516 4.13338,2.28522 4.13185,2.27548 4.13013,2.26595 4.12822,2.25661 4.12614,2.24747 4.12387,2.23852 4.12143,2.22977 4.11881,2.2212 4.11602,2.21283 4.11306,2.20464 4.10994,2.19663 4.10665,2.18881 4.1032,2.18117 4.09959,2.1737 4.09582,2.16641 4.0919,2.1593 4.08782,2.15235 4.0836,2.14557 4.07923,2.13896 4.07472,2.13252 4.07007,2.12624 4.06527,2.12012 4.06034,2.11417 "/>
     <polygon id="_431861048" class="fil1" points="4.1385,2.34796 7.92476,6.13424 7.92747,6.14537 7.93002,6.15644 7.93242,6.16745 7.93466,6.17841 7.93674,6.1893 7.93868,6.20013 7.94047,6.2109 7.94211,6.22161 7.9436,6.23227 7.94494,6.24286 7.94615,6.25339 7.9472,6.26386 7.94812,6.27427 7.94889,6.28461 7.94952,6.2949 7.95002,6.30513 7.95038,6.3153 7.95061,6.3254 7.9507,6.33544 7.95065,6.34543 7.95048,6.35535 7.95017,6.3652 7.94974,6.375 7.94918,6.38474 7.94849,6.39441 7.94768,6.40403 7.94674,6.41357 7.94569,6.42307 7.94451,6.43249 7.94321,6.44185 7.9418,6.45116 7.94026,6.4604 4.15399,2.67413 4.15553,2.66489 4.15694,2.65558 4.15824,2.64622 4.15942,2.6368 4.16048,2.6273 4.16141,2.61776 4.16222,2.60814 4.16291,2.59847 4.16347,2.58873 4.16391,2.57893 4.16421,2.56907 4.16439,2.55915 4.16443,2.54917 4.16434,2.53913 4.16411,2.52902 4.16376,2.51886 4.16326,2.50863 4.16262,2.49834 4.16185,2.488 4.16093,2.47759 4.15988,2.46711 4.15868,2.45659 4.15733,2.446 4.15584,2.43534 4.1542,2.42463 4.15241,2.41386 4.15048,2.40303 4.14839,2.39213 4.14615,2.38118 4.14375,2.37017 4.1412,2.3591 "/>
     <polygon id="_431861456" class="fil1" points="4.24522,2.67317 8.03148,6.45944 8.03424,6.46279 4.24798,2.67652 "/>
     <polygon id="_431861192" class="fil1" points="4.24798,2.67652 8.03424,6.46279 8.03648,6.46664 8.03809,6.47084 8.03908,6.47536 8.03946,6.4802 8.03925,6.48531 8.03846,6.4907 8.0371,6.49633 8.03519,6.50218 8.03274,6.50824 8.02976,6.51448 8.02628,6.52088 8.02229,6.52742 8.01783,6.53409 8.01289,6.54085 8.0075,6.5477 8.00166,6.55461 4.21539,2.76833 4.22123,2.76143 4.22662,2.75458 4.23156,2.74781 4.23602,2.74115 4.24001,2.73461 4.2435,2.7282 4.24647,2.72196 4.24892,2.71591 4.25083,2.71006 4.25219,2.70443 4.25298,2.69904 4.25319,2.69393 4.25281,2.68909 4.25183,2.68457 4.25022,2.68037 "/>
     <polygon id="_431861384" class="fil1" points="4.31697,2.84266 8.10324,6.62893 8.11213,6.63926 8.12056,6.64993 8.12853,6.66094 8.13604,6.67227 8.1431,6.68391 8.14972,6.69584 8.15589,6.70805 8.16163,6.72051 8.16693,6.73322 8.17181,6.74615 8.17626,6.75929 8.18029,6.77263 8.18391,6.78615 8.18711,6.79983 8.1899,6.81366 8.1923,6.82762 8.19429,6.8417 8.19589,6.85588 8.1971,6.87014 8.19793,6.88447 8.19837,6.89885 8.19844,6.91327 8.19813,6.9277 4.41186,3.14143 4.41217,3.127 4.4121,3.11258 4.41166,3.0982 4.41083,3.08387 4.40962,3.06961 4.40802,3.05543 4.40603,3.04135 4.40363,3.02739 4.40084,3.01356 4.39764,2.99988 4.39402,2.98636 4.38999,2.97302 4.38554,2.95988 4.38067,2.94694 4.37536,2.93424 4.36963,2.92178 4.36345,2.90957 4.35683,2.89764 4.34977,2.886 4.34226,2.87467 4.33429,2.86366 4.32587,2.85298 "/>
     <polygon id="_431861000" class="fil1" points="2.84305,1.84102 6.62931,5.62729 6.42961,5.5835 2.64334,1.79722 "/>
     <polygon id="_431861408" class="fil1" points="2.58515,1.78446 6.37141,5.57073 6.24971,5.54405 2.46344,1.75778 "/>
     <polygon id="_431861432" class="fil1" points="2.50306,2.25615 6.28932,6.04242 6.25406,6.09722 2.46779,2.31095 "/>
     <polygon id="_431861528" class="fil1" points="2.54264,2.25615 6.32891,6.04242 6.31233,6.09722 2.52607,2.31095 "/>
     <polygon id="_431861768" class="fil1" points="2.58091,2.25571 6.36717,6.04198 6.35782,6.09722 2.57156,2.31095 "/>
     <polygon id="_431861600" class="fil1" points="2.63222,2.31095 6.41849,6.09722 6.40022,6.09722 2.61395,2.31095 "/>
     <polygon id="_431858312" class="fil1" points="2.57156,2.31095 6.35782,6.09722 6.3425,6.09722 2.55623,2.31095 "/>
     <polygon id="_431857760" class="fil1" points="2.55565,2.06903 6.34191,5.8553 6.34224,5.85908 6.34257,5.86288 6.34289,5.86669 6.34322,5.87051 6.34354,5.87435 6.34386,5.8782 6.34418,5.88207 6.3445,5.88595 6.34481,5.88985 6.34512,5.89377 6.34542,5.8977 6.34571,5.90165 6.346,5.90561 6.34628,5.90959 6.34655,5.91358 6.34681,5.9176 2.56055,2.13133 2.56028,2.12731 2.56001,2.12331 2.55973,2.11933 2.55944,2.11537 2.55915,2.11143 2.55885,2.1075 2.55854,2.10358 2.55823,2.09968 2.55791,2.0958 2.55759,2.09193 2.55728,2.08808 2.55695,2.08424 2.55663,2.08042 2.5563,2.07661 2.55597,2.07281 "/>
     <polygon id="_431858048" class="fil1" points="2.66535,3.58857 6.45161,7.37485 6.44782,7.37124 6.44396,7.36764 6.44003,7.36403 6.43603,7.36041 6.43196,7.3568 2.6457,3.57052 2.64976,3.57414 2.65376,3.57776 2.65769,3.58137 2.66155,3.58497 "/>
     <polygon id="_431858240" class="fil1" points="3.84223,5.06848 7.6285,8.85475 7.62303,8.86409 7.61714,8.87348 7.61082,8.8829 7.60406,8.89233 7.59685,8.90175 7.58919,8.91112 7.58107,8.92044 7.57248,8.92967 7.56342,8.93879 7.55387,8.94779 7.54384,8.95663 7.5333,8.96529 7.52226,8.97376 7.51071,8.982 7.49864,8.99 7.48604,8.99773 7.47291,9.00517 7.45923,9.0123 7.445,9.01908 7.43022,9.02551 7.41487,9.03156 7.39895,9.0372 7.38245,9.04242 7.36536,9.04718 7.34768,9.05146 7.3294,9.05526 7.3105,9.05853 7.291,9.06125 7.27086,9.06341 7.2501,9.06499 7.2287,9.06594 7.20665,9.06627 3.42038,5.28 3.44243,5.27967 3.46383,5.27872 3.48459,5.27714 3.50473,5.27498 3.52424,5.27226 3.54313,5.26898 3.56141,5.26519 3.57909,5.26091 3.59618,5.25615 3.61268,5.25093 3.6286,5.24529 3.64395,5.23924 3.65873,5.23281 3.67296,5.22602 3.68664,5.2189 3.69977,5.21146 3.71237,5.20372 3.72444,5.19573 3.736,5.18748 3.74704,5.17902 3.75757,5.17035 3.76761,5.16152 3.77715,5.15252 3.78622,5.1434 3.7948,5.13417 3.80293,5.12485 3.81058,5.11548 3.81779,5.10606 3.82455,5.09663 3.83087,5.08721 3.83676,5.07781 "/>
     <polygon id="_431857904" class="fil1" points="3.42038,5.28 7.20665,9.06627 7.20575,9.06625 7.20487,9.0662 7.20399,9.06612 7.20312,9.06602 7.20225,9.06591 7.20138,9.0658 7.20051,9.0657 7.19963,9.06561 3.41337,5.27934 3.41424,5.27943 3.41511,5.27953 3.41598,5.27964 3.41685,5.27975 3.41772,5.27985 3.4186,5.27993 3.41948,5.27998 "/>
     <polygon id="_431858168" class="fil1" points="3.41337,5.27934 7.19963,9.06561 7.19876,9.0657 7.19789,9.0658 7.19702,9.06591 7.19616,9.06602 7.19529,9.06612 7.19442,9.0662 7.19354,9.06625 7.19265,9.06627 3.40638,5.28 3.40727,5.27998 3.40815,5.27993 3.40902,5.27985 3.40989,5.27975 3.41076,5.27964 3.41162,5.27953 3.41249,5.27943 "/>
     <polygon id="_431857952" class="fil1" points="2.98452,5.06848 6.77078,8.85475 5.53619,8.94715 1.74993,5.16088 "/>
     <polygon id="_431857976" class="fil1" points="3.40638,5.28 7.19265,9.06627 7.1706,9.06594 7.1492,9.06499 7.12843,9.06341 7.1083,9.06125 7.0888,9.05853 7.0699,9.05526 7.05162,9.05146 7.03394,9.04718 7.01685,9.04242 7.00035,9.0372 6.98443,9.03156 6.96908,9.02551 6.9543,9.01908 6.94007,9.0123 6.92639,9.00517 6.91326,8.99773 6.90066,8.99 6.88858,8.982 6.87703,8.97376 6.86599,8.96529 6.85545,8.95663 6.84542,8.94779 3.05915,5.16152 3.06919,5.17035 3.07972,5.17902 3.09076,5.18748 3.10231,5.19573 3.11439,5.20372 3.12699,5.21146 3.14013,5.2189 3.1538,5.22602 3.16803,5.23281 3.18281,5.23924 3.19817,5.24529 3.21409,5.25093 3.23059,5.25615 3.24767,5.26091 3.26535,5.26519 3.28363,5.26898 3.30253,5.27226 3.32204,5.27498 3.34217,5.27714 3.36293,5.27872 3.38433,5.27967 "/>
     <polygon id="_431858336" class="fil1" points="1.74993,5.16088 5.53619,8.94715 5.52593,8.94739 5.51587,8.9466 5.50609,8.94484 5.49665,8.94216 5.48757,8.9386 5.47894,8.9342 5.4708,8.92902 5.4632,8.9231 1.67693,5.13683 1.68453,5.14275 1.69267,5.14793 1.70131,5.15233 1.71038,5.15589 1.71983,5.15857 1.72961,5.16033 1.73966,5.16111 "/>
     <polygon id="_431857784" class="fil1" points="2.6457,3.57052 6.43196,7.3568 6.42841,7.35361 6.42489,7.35037 6.42141,7.34707 2.63514,3.5608 2.63863,3.5641 2.64215,3.56734 "/>
     <polygon id="_431857880" class="fil1" points="5.07676,5.16088 8.86303,8.94715 7.6285,8.85475 3.84223,5.06848 "/>
     <polygon id="_431858960" class="fil1" points="2.64334,1.79722 6.42961,5.5835 6.41993,5.58832 6.41091,5.59343 6.40252,5.59882 6.39474,5.60448 6.38756,5.61042 6.38094,5.61662 6.37489,5.62308 6.36936,5.6298 6.36434,5.63676 6.35981,5.64398 6.35575,5.65143 6.35213,5.65913 6.34895,5.66705 6.34617,5.6752 6.34377,5.68357 6.34174,5.69217 6.34006,5.70097 6.33869,5.70998 6.33763,5.7192 6.33685,5.72861 6.33633,5.73822 6.33605,5.74801 6.336,5.75799 6.33613,5.76815 6.33645,5.77848 6.33693,5.78899 6.33754,5.79966 6.33826,5.81048 6.33909,5.82147 6.33998,5.8326 6.34093,5.84388 6.34191,5.8553 2.55565,2.06903 2.55467,2.05761 2.55371,2.04633 2.55282,2.0352 2.552,2.02421 2.55127,2.01339 2.55066,2.00272 2.55019,1.99221 2.54987,1.98188 2.54973,1.97172 2.54978,1.96174 2.55006,1.95194 2.55058,1.94234 2.55136,1.93293 2.55242,1.92371 2.55379,1.9147 2.55547,1.90589 2.5575,1.8973 2.5599,1.88893 2.56268,1.88078 2.56587,1.87285 2.56948,1.86516 2.57354,1.85771 2.57807,1.85049 2.58309,1.84352 2.58862,1.83681 2.59468,1.83035 2.60129,1.82415 2.60847,1.81821 2.61625,1.81255 2.62464,1.80716 2.63366,1.80205 "/>
     <polygon id="_431859008" class="fil1" points="2.56087,2.13133 6.34714,5.9176 6.41849,6.09722 2.63222,2.31095 "/>
     <polygon id="_431858936" class="fil1" points="4.2502,3.57052 8.03647,7.3568 8.03117,7.36153 8.02598,7.36625 8.02091,7.37097 8.01595,7.37569 8.0111,7.38039 8.00637,7.38509 8.00176,7.38978 7.99725,7.39446 7.99285,7.39913 7.98856,7.4038 7.98438,7.40845 7.9803,7.4131 7.97633,7.41774 7.97247,7.42236 7.96871,7.42698 7.96505,7.43159 7.96149,7.43619 7.95804,7.44078 7.95468,7.44536 7.95142,7.44993 7.94826,7.45449 7.9452,7.45904 7.94223,7.46357 7.93935,7.4681 7.93657,7.47261 7.93388,7.47712 7.93128,7.48161 7.92878,7.48608 7.92635,7.49055 7.92402,7.495 7.92178,7.49944 7.91962,7.50387 4.13335,3.7176 4.13551,3.71317 4.13776,3.70873 4.14009,3.70428 4.14251,3.69981 4.14502,3.69533 4.14761,3.69085 4.1503,3.68634 4.15309,3.68183 4.15596,3.6773 4.15893,3.67277 4.162,3.66822 4.16515,3.66366 4.16841,3.65909 4.17177,3.65451 4.17522,3.64992 4.17878,3.64532 4.18244,3.64071 4.1862,3.63609 4.19007,3.63146 4.19404,3.62683 4.19811,3.62218 4.20229,3.61752 4.20658,3.61286 4.21098,3.60819 4.21549,3.6035 4.22011,3.59881 4.22483,3.59412 4.22968,3.58941 4.23464,3.5847 4.23971,3.57998 4.2449,3.57526 "/>
     <polygon id="_431858864" class="fil1" points="2.52607,2.31095 6.31233,6.09722 6.29442,6.09722 2.50815,2.31095 "/>
     <polygon id="_431858576" class="fil1" points="4.13335,3.7176 7.91962,7.50387 7.91896,7.51167 7.91854,7.5194 7.91835,7.52704 7.91838,7.53461 7.91863,7.54209 7.91907,7.5495 7.91972,7.55681 7.92055,7.56404 7.92155,7.57117 7.92272,7.57822 7.92405,7.58517 7.92553,7.59203 7.92715,7.59879 7.9289,7.60545 7.93077,7.61201 7.93275,7.61847 7.93483,7.62483 7.93701,7.63107 7.93928,7.63722 7.94161,7.64325 7.94402,7.64917 7.94648,7.65497 7.949,7.66066 7.95155,7.66624 7.95413,7.67169 7.95672,7.67702 7.95934,7.68224 7.96195,7.68732 7.96456,7.69228 7.96715,7.69711 7.96972,7.70181 7.97225,7.70639 4.18598,3.92011 4.18345,3.91554 4.18089,3.91084 4.17829,3.90601 4.17569,3.90105 4.17307,3.89596 4.17046,3.89075 4.16786,3.88542 4.16528,3.87996 4.16273,3.87439 4.16022,3.8687 4.15775,3.86289 4.15535,3.85698 4.15301,3.85094 4.15074,3.8448 4.14857,3.83856 4.14648,3.8322 4.1445,3.82574 4.14263,3.81918 4.14088,3.81252 4.13926,3.80576 4.13778,3.7989 4.13645,3.79195 4.13528,3.7849 4.13428,3.77776 4.13345,3.77054 4.13281,3.76322 4.13236,3.75582 4.13211,3.74834 4.13208,3.74077 4.13227,3.73313 4.13269,3.7254 "/>
     <polygon id="_431858768" class="fil1" points="2.46779,2.31095 6.25406,6.09722 6.24189,6.09722 2.45562,2.31095 "/>
     <polygon id="_431858624" class="fil1" points="4.58422,4.17711 8.37048,7.96338 8.37814,7.97167 8.38564,7.98078 8.39298,7.99071 8.40019,8.00142 8.40724,8.01289 8.41417,8.0251 8.42095,8.03801 8.42761,8.05161 8.43413,8.06588 8.44054,8.08078 8.44683,8.09629 8.453,8.11239 8.45906,8.12904 8.46502,8.14624 8.47087,8.16395 8.47663,8.18215 8.48229,8.20081 8.48787,8.21991 8.49335,8.23943 8.49876,8.25933 8.50409,8.2796 8.50934,8.30021 8.51453,8.32114 8.51965,8.34235 8.52471,8.36383 8.52972,8.38556 8.53467,8.4075 8.53957,8.42963 8.54443,8.45193 8.54924,8.47437 8.55402,8.49693 4.76776,4.71066 4.76298,4.6881 4.75816,4.66566 4.7533,4.64336 4.7484,4.62123 4.74345,4.59929 4.73844,4.57756 4.73339,4.55608 4.72826,4.53487 4.72307,4.51394 4.71782,4.49333 4.71249,4.47306 4.70709,4.45316 4.7016,4.43364 4.69602,4.41454 4.69036,4.39588 4.68461,4.37768 4.67875,4.35997 4.67279,4.34277 4.66673,4.32611 4.66056,4.31002 4.65427,4.2945 4.64787,4.27961 4.64134,4.26534 4.63468,4.25174 4.6279,4.23883 4.62098,4.22662 4.61392,4.21515 4.60672,4.20444 4.59937,4.19451 4.59187,4.18539 "/>
     <polygon id="_431859248" class="fil1" points="4.85987,4.72227 8.64614,8.50854 8.65413,8.54947 4.86786,4.7632 "/>
     <polygon id="_431859032" class="fil1" points="4.86786,4.7632 8.65413,8.54947 8.65591,8.55832 8.65775,8.56694 8.65965,8.57535 8.66161,8.58353 8.66363,8.5915 8.66569,8.59926 8.66781,8.6068 8.66998,8.61415 8.67219,8.62128 8.67444,8.62822 8.67674,8.63496 8.67907,8.6415 8.68144,8.64785 8.68384,8.65402 8.68626,8.65999 8.68872,8.66579 8.6912,8.6714 8.6937,8.67683 8.69621,8.68209 8.69875,8.68717 8.7013,8.69209 8.70385,8.69684 8.70642,8.70143 8.70899,8.70585 8.71156,8.71012 8.71413,8.71423 8.7167,8.71819 8.71927,8.722 8.72183,8.72567 8.72437,8.72919 8.72691,8.73257 8.72943,8.73581 4.94316,4.94954 4.94064,4.9463 4.93811,4.94292 4.93556,4.9394 4.933,4.93573 4.93044,4.93192 4.92787,4.92796 4.92529,4.92385 4.92272,4.91958 4.92015,4.91516 4.91758,4.91057 4.91503,4.90582 4.91248,4.9009 4.90994,4.89581 4.90743,4.89056 4.90493,4.88513 4.90245,4.87952 4.9,4.87372 4.89757,4.86774 4.89517,4.86158 4.89281,4.85523 4.89047,4.84869 4.88818,4.84195 4.88593,4.83501 4.88371,4.82787 4.88154,4.82053 4.87943,4.81298 4.87736,4.80523 4.87534,4.79726 4.87338,4.78907 4.87148,4.78067 4.86964,4.77205 "/>
     <polygon id="_431859152" class="fil1" points="5.15361,4.9883 8.93988,8.77457 8.94651,8.78157 8.95244,8.78917 8.95764,8.79731 8.96205,8.80595 8.96562,8.81502 8.96832,8.82448 8.97009,8.83426 8.97089,8.84431 8.97067,8.85459 5.1844,5.06832 5.18462,5.05804 5.18382,5.04798 5.18205,5.0382 5.17935,5.02875 5.17578,5.01968 5.17137,5.01104 5.16618,5.0029 5.16024,4.9953 "/>
     <polygon id="_431859728" class="fil1" points="5.1844,5.06832 8.97067,8.85459 8.96939,8.86478 8.96715,8.8746 8.96398,8.884 8.95994,8.89294 8.95508,8.90138 8.94946,8.90925 8.94314,8.91652 8.93615,8.92314 8.92857,8.92907 8.92043,8.93425 8.9118,8.93865 8.90272,8.9422 8.89325,8.94488 8.88344,8.94663 8.87335,8.9474 8.86303,8.94715 5.07676,5.16088 5.08708,5.16113 5.09718,5.16036 5.10698,5.15861 5.11645,5.15593 5.12553,5.15237 5.13417,5.14798 5.1423,5.1428 5.14989,5.13687 5.15687,5.13025 5.1632,5.12298 5.16881,5.11511 5.17367,5.10667 5.17771,5.09773 5.18088,5.08833 5.18313,5.07851 "/>
     <polygon id="_431859896" class="fil1" points="4.41186,3.14143 8.19813,6.9277 8.19844,6.94311 8.19836,6.95854 8.19789,6.97399 8.19705,6.98944 8.19582,7.00487 8.19423,7.02027 8.19226,7.03562 8.18994,7.0509 8.18726,7.06611 8.18422,7.08121 8.18083,7.09621 8.17709,7.11108 8.17301,7.1258 8.1686,7.14036 8.16385,7.15475 8.15878,7.16894 8.15338,7.18293 8.14766,7.19669 8.14163,7.2102 8.13528,7.22346 8.12863,7.23646 8.12167,7.24916 8.11442,7.26156 8.10688,7.27363 8.09904,7.28537 8.09093,7.29676 8.08252,7.30778 8.07385,7.31842 8.0649,7.32865 8.05569,7.33847 8.04621,7.34786 8.03647,7.3568 4.2502,3.57052 4.25994,3.56159 4.26942,3.5522 4.27863,3.54238 4.28758,3.53215 4.29626,3.52151 4.30466,3.51049 4.31278,3.4991 4.32061,3.48736 4.32815,3.47528 4.33541,3.46289 4.34236,3.45019 4.34901,3.43719 4.35536,3.42393 4.36139,3.41041 4.36711,3.39665 4.37251,3.38267 4.37758,3.36848 4.38233,3.35409 4.38674,3.33953 4.39082,3.32481 4.39456,3.30994 4.39795,3.29494 4.40099,3.27983 4.40367,3.26463 4.406,3.24935 4.40796,3.234 4.40956,3.21859 4.41078,3.20317 4.41163,3.18772 4.41209,3.17227 4.41217,3.15683 "/>
    </g>
    <path id="_435556552" class="fil1" d="M2.55564 2.06903l0 0zm0.870563 -0.52237l0.96276 0.211114 -0.347224 0.0761378 0 0.257146c-0.000807087,0.000271654 -0.00161024,0.000547244 -0.00241732,0.000818898 0.0587717,0.0561969 0.0964882,0.137791 0.0991772,0.256087 0.0297126,0.119059 0.0324764,0.227937 0.0154961,0.326161 0.0442795,-0.0162913 0.0806811,-0.0166969 0.0939843,0.00238976 0.0136732,0.0195748 -0.000299213,0.0548661 -0.0325866,0.0918189 0.144098,0.0657717 0.201705,0.219035 0.196472,0.373098 0.00538583,0.164063 -0.0564409,0.336201 -0.161657,0.429091 -0.0572244,0.0505157 -0.0942835,0.0999213 -0.11685,0.147075 -0.00837008,0.083622 0.0258307,0.154476 0.0526299,0.202516 0.24448,0.128209 0.341134,0.205945 0.390417,0.249571 0.0842126,0.0745354 0.140543,0.299795 0.191354,0.540976 0.0315512,0.00415354 0.0498543,0.0064252 0.0507402,0.00653543l0.041378 0.0050748 0.00798819 0.0409291c0.0186024,0.0955709 0.0485354,0.152484 0.0752953,0.186339l0.0128622 0.000968504 0.135622 0.0101772c0.0552913,0.00409055 0.0967205,0.0523386 0.0927598,0.107634 -0.00410236,0.0552559 -0.0520551,0.0966969 -0.107642,0.092563l-1.23453 -0.0924055c-0.0560945,0.099248 -0.183181,0.211524 -0.421854,0.211524 -0.00240551,0 -0.00466142,-0.000444882 -0.00701181,-0.000661417 -0.00235433,0.000216535 -0.00458268,0.000661417 -0.00698819,0.000661417 -0.238646,0 -0.365768,-0.112276 -0.421862,-0.211524l-1.23459 0.0924055c-0.055252,0.00402756 -0.10352,-0.0373071 -0.107646,-0.092563 -0.00413386,-0.0552953 0.0373701,-0.103543 0.0926496,-0.107634l0.163425 -0.0122165 0.00127953 -0.00165748c0.026185,-0.0341811 0.0548976,-0.0905551 0.073126,-0.18361l0.00787402 -0.0407953 0.0413819 -0.00516142c0.000744094,-8.26772e-005 0.0137165,-0.0016811 0.0364606,-0.00463386 0.0509094,-0.241917 0.107307,-0.468189 0.19176,-0.542925 0.00785039,-0.00694882 0.0169764,-0.0148031 0.0277756,-0.023622 0.0608386,-0.0497008 0.17465,-0.130031 0.411047,-0.251181 0.0328622,-0.0650591 0.0647087,-0.159539 0.0137244,-0.266988 -0.0162953,-0.0189173 -0.0352165,-0.038063 -0.0570866,-0.0573701 -0.0380748,-0.0336063 -0.0704646,-0.0775906 -0.0960472,-0.127811 -0.148075,-0.196122 -0.151512,-0.586319 0.122193,-0.684815 -0.0260197,-0.0330591 -0.0362992,-0.0636614 -0.0239291,-0.0813819 0.0117874,-0.0168976 0.0416693,-0.0185157 0.0790984,-0.0073622 -0.0344724,-0.146193 -0.0242441,-0.310319 0.0580984,-0.484819 0.0163583,-0.0346614 0.0357087,-0.0668307 0.057937,-0.0958937l0 -0.247425 -0.199705 -0.0437913c-0.106815,0.0499331 -0.0982717,0.149252 -0.0876969,0.271807 0.00173622,0.020126 0.00352362,0.0408425 0.00490157,0.0622953l0.000322835 0 0.0713504 0.179626 -0.0182717 0 -0.0330433 -0.0552402 -0.00935039 0.0552402 -0.0153268 0 -0.0135906 -0.0548031 -0.0165709 0.0548031 -0.0179134 0 -0.00509843 -0.0548031 -0.0352638 0.0548031 -0.0121693 0 0.0647756 -0.178591c-0.00135827,-0.020311 -0.00309055,-0.0403701 -0.00477165,-0.059878l0 -7.87402e-005c-0.0105472,-0.122295 -0.0193268,-0.224087 0.0695197,-0.287945l-0.121701 -0.026685 0.962756 -0.211114z"/>
   </g>
  </g>
  <path class="fil2" d="M3.41333 0c1.88513,0 3.41333,1.5282 3.41333,3.41333 0,1.88513 -1.5282,3.41333 -3.41333,3.41333 -1.88513,0 -3.41333,-1.5282 -3.41333,-3.41333 0,-1.88513 1.5282,-3.41333 3.41333,-3.41333z"/>
  <path class="fil3" d="M3.68144 3.57507c-0.00466929,0.00730709 -0.474496,0.0146063 -0.479551,0.0218425 -0.00527559,0.0341417 -0.0474567,0.0815 -0.0730039,0.0929843 -0.206256,0.0927244 -0.264043,0.382209 -0.489579,0.430063 -0.246012,0.0550118 -0.394811,0.194807 -0.395173,0.402909l2.11933 0c-0.000370079,-0.208102 -0.00492126,-0.519413 -0.255878,-0.575547 -0.27974,-0.056122 -0.386945,-0.157673 -0.426146,-0.372252z"/>
  <path class="fil4" d="M2.78511 2.18433c0.0852756,-0.180669 0.251787,-0.293748 0.483976,-0.250996 0.185752,-0.227374 0.678717,-0.0217598 0.779453,0.177748 0.388591,0.769563 -0.297846,1.20169 -0.622213,1.20169 -0.291094,0 -0.939587,-0.496134 -0.641217,-1.12844z"/>
  <path class="fil3" d="M3.68332 3.13675l0 0.588602c-0.132138,0.173665 -0.34835,0.167661 -0.480469,0l0 -0.588602c0,-0.317827 0.480469,-0.317827 0.480469,0z"/>
  <path class="fil5" d="M3.68332 3.13675l0 0.394067c-0.0908976,0.071126 -0.178524,0.110969 -0.24022,0.110969 -0.0616969,0 -0.14935,-0.0398425 -0.240248,-0.110961l0 -0.394075c0,-0.317827 0.480469,-0.317827 0.480469,0z"/>
  <path class="fil6" d="M4.07094 2.7185c-0.0766654,0.0534803 -0.121657,0.121374 -0.100531,0.151665 0.021122,0.0302835 0.100398,0.0114843 0.177059,-0.0419803 0.0766378,-0.0534803 0.121657,-0.121386 0.100508,-0.151669 -0.0211181,-0.0302913 -0.100394,-0.0114921 -0.177035,0.0419843z"/>
  <path class="fil6" d="M2.82495 2.7185c0.0766457,0.0534803 0.121657,0.121374 0.100512,0.151665 -0.021122,0.0302835 -0.10039,0.0114843 -0.177035,-0.0419803 -0.0766417,-0.0534803 -0.121654,-0.121386 -0.100512,-0.151669 0.021126,-0.0302913 0.100402,-0.0114921 0.177035,0.0419843z"/>
  <path class="fil3" d="M3.13213 3.68661c-0.621689,0.272535 -0.808181,0.417827 -0.88189,0.483079 -0.113606,0.100524 -0.176437,0.47522 -0.243437,0.79337l1.40652 0 1.40652 0c-0.067,-0.31815 -0.129858,-0.692846 -0.243433,-0.79337 -0.0737126,-0.065252 -0.253374,-0.206795 -0.875063,-0.479366l-0.569213 -0.0037126z"/>
  <path class="fil7" d="M3.1321 3.68661c-0.621661,0.272535 -0.808154,0.417827 -0.881862,0.483079 -0.113606,0.100524 -0.176437,0.47522 -0.243437,0.79337l1.40652 0 1.40649 0c-0.0669921,-0.31815 -0.129831,-0.692846 -0.243429,-0.79337 -0.073689,-0.065252 -0.25335,-0.206795 -0.875039,-0.479366l0.00681102 0.0392165 -0.299925 0.241406 -0.311008 -0.257811 0.0348819 -0.0265236z"/>
  <path class="fil8" d="M2.58 4.96306l0.0481614 0c-0.00214961,-0.214189 -0.00214961,-0.368563 -0.00214961,-0.368563 0,0 -0.0213386,0.160429 -0.0460118,0.368563z"/>
  <path class="fil8" d="M4.24665 4.96306l-0.048189 0c0.00215354,-0.214189 0.00215354,-0.368563 0.00215354,-0.368563 0,0 0.0213346,0.160429 0.0460354,0.368563z"/>
  <path class="fil9" d="M3.11147 3.83244l0.131122 1.13062 0.170728 0 0.169441 0 0.132406 -1.13059 1.9685e-005 -2.3622e-005 -1.9685e-005 -0.0408858 0 -0.0917008c-0.235866,0.171906 -0.375362,0.166457 -0.603697,0l0 0.0909803 0 0.0416063z"/>
  <path class="fil7" d="M3.4533 3.96094l0.0941535 1.00212 1.27236 0c-0.0669961,-0.318154 -0.129835,-0.692846 -0.243433,-0.793374 -0.0731339,-0.0647559 -0.250736,-0.204693 -0.861185,-0.473264l-0.261898 0.264516z"/>
  <path class="fil7" d="M3.1106 3.69607c-0.604433,0.266433 -0.787512,0.40913 -0.860366,0.473618 -0.113598,0.100528 -0.176433,0.47522 -0.243433,0.793374l1.29072 0 0.0473976 -0.999177 -0.233449 -0.25937c-0.000779528,-0.00279134 -0.00106299,-0.00564567 -0.000870079,-0.00844488z"/>
  <path class="fil10" d="M2.56662 4.70341c0.00026378,0.00457087 0.000814961,0.00906299 0.00117323,0.0136181l0.0901496 -0.0136181 -0.0913228 0z"/>
  <path class="fil10" d="M5.09164 4.96069l-0.135622 -0.0101772 8.26772e-005 0.000594488 -1.20301 -0.0859488c-0.00256299,0.000602362 -0.00508661,0.00129528 -0.00756693,0.00208268 -0.0332283,0.13002 -0.173587,0.22765 -0.34172,0.22765 -0.165752,0 -0.304528,-0.0948819 -0.340256,-0.222146l-1.16391 0.0740709 -0.00127953 0.00165748 -0.163425 0.0122165c-0.0552795,0.00409055 -0.0967835,0.0523386 -0.0926496,0.107634 0.00412598,0.0552559 0.0523937,0.0965906 0.107646,0.092563l1.23459 -0.0924055c0.0560945,0.099248 0.183217,0.211524 0.421862,0.211524 0.00240551,0 0.00463386,-0.000444882 0.00698819,-0.000661417 0.00235039,0.000216535 0.0046063,0.000661417 0.00701181,0.000661417 0.238673,0 0.36576,-0.112276 0.421854,-0.211524l1.23453 0.0924055c0.0555866,0.00413386 0.103539,-0.0373071 0.107642,-0.092563 0.00396063,-0.0552953 -0.0374685,-0.103543 -0.0927598,-0.107634z"/>
  <path class="fil11" d="M3.06355 4.87274c0.00914567,0.0325787 0.0250433,0.0630354 0.0464173,0.0903189 0.0621299,0.0793071 0.17052,0.131827 0.293839,0.131827 0.123327,0 0.231701,-0.0525236 0.293827,-0.131827 0.0225709,-0.028815 0.0390354,-0.0611693 0.0478937,-0.0958228 0.00248031,-0.000787402 0.00500394,-0.00148031 0.00756693,-0.00208268 -0.0293858,-0.00210236 0.828807,0.0592126 1.20301,0.0859488l-8.26772e-005 -0.000594488 -0.0128622 -0.000968504c-0.0267598,-0.0338543 -0.0566929,-0.0907677 -0.0752953,-0.186339l-0.00798819 -0.0409291 -0.041378 -0.0050748c-0.00449606,-0.000566929 -0.456142,-0.0565433 -0.813098,-0.132012 -0.29911,-0.0633622 -0.473917,0.0521457 -0.535173,0.104819 -0.0191024,0.0163583 -0.0356654,0.0337835 -0.0499488,0.0516772 -0.0142835,-0.0178937 -0.0308898,-0.035185 -0.0499409,-0.0515433 -0.0612835,-0.0526811 -0.236118,-0.168079 -0.535224,-0.104906 -0.356894,0.0755354 -0.808587,0.131512 -0.813094,0.132012l-0.0413819 0.00516142 -0.00787402 0.0407953c-0.0182283,0.0930551 -0.0469409,0.149429 -0.073126,0.18361l1.16391 -0.0740709z"/>
  <path class="fil4" d="M2.77003 2.7473c-0.374484,0.0907205 -0.343866,0.629441 -0.124331,0.823228 0.343866,0.303579 -0.0405276,0.567004 0.0787874,0.542461 0.2835,-0.0582992 0.478075,-0.473146 0.187433,-0.79511 -0.290661,-0.321969 0.0732087,-0.622685 -0.14189,-0.570579z"/>
  <path class="fil4" d="M4.12587 2.7473c0.374492,0.0907205 0.343846,0.629441 0.124339,0.823228 -0.343894,0.303579 0.0405276,0.567004 -0.0787953,0.542461 -0.2835,-0.0582992 -0.478067,-0.473146 -0.187425,-0.79511 0.290638,-0.321969 -0.0732126,-0.622685 0.141882,-0.570579z"/>
  <path class="fil12" d="M4.15245 2.74674c0.33972,0.0822992 0.311925,0.571 0.112795,0.746795 -0.311965,0.275394 0.0367638,0.514358 -0.0714803,0.492094 -0.257177,-0.0528858 -0.433677,-0.429213 -0.170024,-0.721287 0.263654,-0.292071 -0.0664134,-0.56487 0.128709,-0.517602z"/>
  <path class="fil12" d="M2.70913 2.74674c-0.33972,0.0822992 -0.311921,0.571 -0.112791,0.746795 0.311965,0.275394 -0.0367677,0.514358 0.0714764,0.492094 0.257177,-0.0528858 0.433681,-0.429213 0.170024,-0.721287 -0.263654,-0.292071 0.0664134,-0.56487 -0.128709,-0.517602z"/>
  <path class="fil3" d="M3.4431 3.54389c-0.156417,0 -0.486854,-0.245917 -0.589012,-0.598126 -0.103142,-0.355646 0.0911063,-0.865748 0.589012,-0.865748 0.497906,0 0.692154,0.510087 0.589012,0.865748 -0.102181,0.352217 -0.432594,0.598126 -0.589012,0.598126z"/>
  <path class="fil3" d="M2.72563 2.73116c0.0502992,-0.0216024 0.121378,0.0314134 0.158776,0.118417 0.0373465,0.0870079 0.0268622,0.175071 -0.0234567,0.196685 -0.0503228,0.0216024 -0.121382,-0.0314134 -0.158752,-0.118417 -0.0373937,-0.0870079 -0.0268898,-0.175071 0.0234331,-0.196685z"/>
  <path class="fil3" d="M4.11404 2.73117c-0.0503189,-0.0216142 -0.121406,0.0314016 -0.158776,0.118406 -0.037374,0.0870079 -0.0268622,0.175071 0.0234567,0.196673 0.0503031,0.0216142 0.121382,-0.0314016 0.158752,-0.118406 0.037374,-0.0870079 0.0268898,-0.175071 -0.0234331,-0.196673z"/>
  <path class="fil4" d="M4.06048 2.73721c0.293476,-0.826512 -0.310083,-0.767283 -0.643016,-0.767283 -0.374972,0 -0.830996,0.0975787 -0.58878,0.794862 0.464433,0.0731969 0.792732,-0.1735 1.00568,-0.541776 -0.00506693,0.24015 0.0920157,0.481287 0.226118,0.514197z"/>
  <path class="fil13" d="M2.65806 1.79094c-0.12228,0.0475512 -0.113457,0.150157 -0.102425,0.278087l7.87402e-006 0c0.00342126,0.0396339 0.00703937,0.0815669 0.00731496,0.126898l-0.0400236 0.000153543c-0.000251969,-0.0417835 -0.00388189,-0.0838386 -0.00731102,-0.123598l0 -7.87402e-005c-0.0124567,-0.144453 -0.0224488,-0.260303 0.128,-0.318815l0.014437 0.0373543z"/>
  <polygon class="fil14" points="2.52077,2.13133 2.56087,2.13133 2.63222,2.31095 2.61395,2.31095 2.58091,2.25571 2.57156,2.31095 2.55623,2.31095 2.54264,2.25615 2.52607,2.31095 2.50815,2.31095 2.50306,2.25615 2.46779,2.31095 2.45562,2.31095 "/>
  <path class="fil7" d="M2.84305 1.77451c0.399563,0.151626 0.799122,0.136102 1.19869,0l0 0.316551c-0.424634,0.144028 -0.82637,0.154157 -1.19869,0l0 -0.316551z"/>
  <rect class="fil14" transform="matrix(1.27514 -0.279612 1.27514 0.279612 2.46344 1.75778)" width="0.755024" height="0.755024"/>
  <path class="fil15" d="M3.19374 3.12418c0.10548,-0.0771535 0.215575,-0.0315 0.252378,-0.0315 0.0368189,0 0.140831,-0.0456535 0.246331,0.0315 -0.0524961,0.212161 -0.419276,0.217516 -0.498709,0z"/>
  <path class="fil16" d="M3.19691 3.12307c0.0979213,-0.0345354 0.184476,0.0330906 0.246079,0.0330906 0.0616063,0 0.148386,-0.0908228 0.246307,-0.0296339 -0.114748,0.116953 -0.376862,0.110622 -0.492386,-0.00345669z"/>
  <path class="fil17" d="M3.19372 3.12306c0.1055,-0.0434921 0.183118,-0.0119449 0.244728,-0.0119449 0.0616063,0 0.1485,-0.0315472 0.254,0.0119449 -0.114748,0.0655157 -0.383185,0.0633307 -0.498728,0z"/>
  <path class="fil15" d="M3.19425 3.12347c0.104996,-0.0761732 0.195161,-0.0233307 0.256654,-0.0233307 0.0615118,0 0.135547,-0.0531142 0.241047,0.0240512 -0.000366142,0.00107087 -0.000822835,0.00212598 -0.00121654,0.00317717 -0.134488,-0.00239764 -0.354594,-0.00377165 -0.496484,-0.00389764z"/>
 </g>
</svg>
